<?xml version="1.0" standalone="no"?>
<svg width="567.429" height="365.36" viewBox="0 0 567.429 365.36" xmlns="http://www.w3.org/2000/svg">
<title>
LaBr3_doppler_effect.svg
</title>
<desc>
Creator: ROOT Version 5.34/36
CreationDate: Fri Jan 25 14:15:35 2019</desc>
<defs>
</defs>
<rect x="0.5" y="0" width="566.929" height="364.86" fill="white"/>
<rect x="6.16929" y="3.6486" width="555.591" height="175.133" fill="white"/>
<rect x="61.7283" y="21.1619" width="444.472" height="140.106" fill="white"/>
<rect x="61.7283" y="21.1619" width="444.472" height="140.106" fill="none" stroke="black"/>
<path d="M61.7283,159.376h 0.861381v 0.890306h 0.861381v 0.556441h 0.861381v -1.22417h 1.72276v 0.111288h 0.861381v -0.222576h 0.861381v 0.111288h 0.861381v 0.556441h 0.861381v -0.667729h 0.861381v 0.222576h 0.861381v -0.333865h 0.861381v 0.667729h
 0.861381v -0.111288h 0.861381v -0.779017h 0.861381v 0.333865h 0.861381v 0.445153h 0.861381v -0.222576h 0.861381v 0.222576h 0.861381v -0.333865h 0.861381v -0.111288h 1.72276v 0.667729h 0.861381v -0.445153h 0.861381v -0.222576h 0.861381v 0.222576h
 0.861381v -0.890306h 0.861381v 0.445153h 0.861381v 0.556441h 0.861381v -0.445153h 0.861381v 0.222576h 1.72276v 0.445153h 0.861381v -0.890306h 0.861381v 0.333865h 0.861381v -0.779017h 0.861381v 0.890306h 0.861381v -0.445153h 0.861381v 0.667729h
 0.861381v -1.22417h 0.861381v -0.111288h 0.861381v 1.55803h 0.861381v -0.890306h 0.861381v -0.222576h 0.861381v 0.556441h 0.861381v -1.00159h 0.861381v -0.111288h 0.861381v 0.779017h 0.861381v 0.333865h 0.861381v 0.111288h 0.861381v -0.111288h
 0.861381v 0.667729h 0.861381v -0.111288h 0.861381v -0.445153h 0.861381v 0.222576h 0.861381v 0.333865h 0.861381v -0.556441h 0.861381v 0.111288h 1.72276v -0.111288h 0.861381v 1.11288h 0.861381v -1.33546h 0.861381v 0.890306h 0.861381v 0.222576h
 0.861381v -0.111288h 0.861381v -0.333865h 0.861381v 0.222576h 0.861381v -0.333865h 0.861381v 0.222576h 0.861381v -0.111288h 1.72276v 0.222576h 0.861381v 0.111288h 0.861381v -0.333865h 0.861381v 0.222576h 0.861381v -8.23533h 0.861381v 8.12404h
 0.861381v 0.333865h 0.861381v 0.556441h 0.861381v -1.66932h 0.861381v 0.667729h 0.861381v -0.222576h 0.861381v 0.111288h 0.861381v 0.333865h 1.72276v 0.333865h 0.861381v -0.667729h 0.861381v 0.556441h 0.861381v -0.333865h 1.72276v -0.556441h
 0.861381v 0.556441h 0.861381v -0.222576h 0.861381v 0.445153h 0.861381v -0.111288h 0.861381v -0.222576h 1.72276v -0.445153h 0.861381v 1.11288h 0.861381v -0.333865h 0.861381v -0.445153h 0.861381v 0.890306h 0.861381v -0.779017h 0.861381v -0.445153h
 0.861381v 0.890306h 0.861381v -0.222576h 0.861381v -0.667729h 0.861381v 0.667729h 1.72276v -0.445153h 0.861381v 0.667729h 1.72276v -0.779017h 0.861381v 0.890306h 0.861381v -0.333865h 0.861381v 0.445153h 0.861381v -0.111288h 1.72276v 0.222576h
 0.861381v -0.556441h 0.861381v 0.333865h 0.861381v -0.333865h 0.861381v -0.333865h 0.861381v 0.779017h 0.861381v -0.445153h 0.861381v 0.333865h 0.861381v -0.333865h 0.861381v 0.111288h 1.72276v 0.111288h 0.861381v -0.111288h 0.861381v -0.333865h
 0.861381v -0.333865h 0.861381v 0.556441h 0.861381v -0.111288h 0.861381v 0.222576h 0.861381v -0.779017h 0.861381v 0.667729h 0.861381v -0.111288h 0.861381v 0.111288h 0.861381v -0.667729h 0.861381v 1.00159h 0.861381v -0.556441h 0.861381v 0.556441h
 0.861381v -0.333865h 0.861381v -0.111288h 0.861381v 0.445153h 0.861381v 0.111288h 0.861381v -0.333865h 0.861381v 0.779017h 0.861381v -0.890306h 0.861381v 0.667729h 0.861381v -0.445153h 0.861381v 0.333865h 0.861381v -0.779017h 0.861381v 0.556441h
 0.861381v 0.445153h 0.861381v -0.779017h 0.861381v 0.333865h 0.861381v -0.445153h 0.861381v 0.111288h 0.861381v -0.556441h 0.861381v 0.556441h 0.861381v -0.333865h 0.861381v 0.111288h 0.861381v 0.890306h 0.861381v -0.222576h 0.861381v -0.890306h
 1.72276v 0.779017h 0.861381v -0.333865h 0.861381v -0.333865h 0.861381v -0.333865h 0.861381v 0.333865h 0.861381v 0.333865h 0.861381v 0.222576h 0.861381v -0.333865h 0.861381v 0.556441h 0.861381v -0.667729h 0.861381v -0.111288h 0.861381v -0.111288h
 0.861381v 0.779017h 0.861381v 0.111288h 0.861381v -0.556441h 0.861381v 0.333865h 0.861381v -0.222576h 0.861381v -0.222576h 0.861381v 0.111288h 0.861381v 0.667729h 0.861381v -0.445153h 0.861381v -1.00159h 0.861381v 1.22417h 0.861381v -0.333865h
 0.861381v -0.445153h 0.861381v -0.445153h 0.861381v 0.667729h 0.861381v 0.556441h 0.861381v 0.111288h 0.861381v -0.445153h 0.861381v -0.333865h 0.861381v -0.222576h 0.861381v 0.667729h 0.861381v 0.222576h 0.861381v -0.222576h 0.861381v -0.556441h
 0.861381v 0.667729h 1.72276v -0.779017h 0.861381v 0.445153h 0.861381v 0.111288h 0.861381v 0.667729h 0.861381v -0.556441h 0.861381v -0.111288h 0.861381v -0.333865h 0.861381v 0.445153h 0.861381v 0.333865h 0.861381v -0.556441h 0.861381v -0.667729h
 0.861381v 1.44675h 0.861381v -1.00159h 0.861381v 0.667729h 0.861381v -0.667729h 0.861381v 0.667729h 0.861381v -0.445153h 0.861381v 0.445153h 0.861381v -0.667729h 0.861381v 0.445153h 0.861381v -0.445153h 1.72276v 0.222576h 0.861381v -0.667729h
 0.861381v 0.556441h 0.861381v 0.445153h 1.72276v -0.111288h 0.861381v -0.333865h 0.861381v -0.890306h 0.861381v 1.22417h 0.861381v -0.222576h 0.861381v 0.111288h 0.861381v 0.333865h 0.861381v -0.890306h 0.861381v 0.890306h 0.861381v -0.333865h
 0.861381v -0.556441h 0.861381v 0.779017h 0.861381v -0.556441h 1.72276v 0.222576h 0.861381v 0.111288h 2.58414v -0.111288h 0.861381v -0.333865h 0.861381v -0.667729h 0.861381v 0.779017h 0.861381v -0.445153h 0.861381v 0.667729h 0.861381v 0.333865h
 0.861381v -1.22417h 0.861381v 0.779017h 0.861381v -0.111288h 1.72276v -0.111288h 0.861381v -0.333865h 0.861381v 0.556441h 0.861381v 0.222576h 0.861381v 0.222576h 0.861381v -1.00159h 0.861381v 0.445153h 0.861381v 0.445153h 0.861381v -0.445153h
 0.861381v -0.556441h 0.861381v 0.111288h 0.861381v 0.779017h 1.72276v -0.111288h 0.861381v -0.445153h 0.861381v 0.222576h 0.861381v -0.333865h 0.861381v -0.556441h 0.861381v 1.33546h 0.861381v -0.445153h 0.861381v -1.22417h 0.861381v 1.78061h
 1.72276v -1.33546h 0.861381v 0.333865h 0.861381v 0.333865h 0.861381v -0.556441h 0.861381v 0.445153h 0.861381v -0.333865h 0.861381v 0.667729h 1.72276v -0.333865h 0.861381v 0.333865h 0.861381v 0.222576h 0.861381v 0.222576h 0.861381v -0.667729h
 0.861381v 0.111288h 0.861381v -30.8268h 0.861381v 29.2688h 0.861381v -0.445153h 0.861381v 0.890306h 0.861381v 0.111288h 0.861381v 0.111288h 0.861381v -0.445153h 0.861381v 0.222576h 1.72276v 0.111288h 0.861381v 0.890306h 0.861381v -1.55803h 0.861381v
 0.890306h 0.861381v -0.111288h 0.861381v 0.667729h 0.861381v -1.55803h 0.861381v 0.779017h 0.861381v -0.556441h 0.861381v 0.667729h 0.861381v -0.556441h 0.861381v 1.00159h 0.861381v -0.333865h 0.861381v -0.445153h 0.861381v 0.445153h 0.861381v
 -0.222576h 0.861381v 0.333865h 0.861381v -0.890306h 0.861381v 0.445153h 0.861381v -0.445153h 0.861381v 0.556441h 0.861381v -0.556441h 0.861381v 0.556441h 0.861381v -0.111288h 0.861381v 0.222576h 0.861381v -0.111288h 0.861381v -0.222576h 0.861381v
 0.890306h 0.861381v -1.66932h 0.861381v 1.22417h 0.861381v -0.779017h 0.861381v 0.779017h 0.861381v -1.22417h 0.861381v -0.333865h 0.861381v 0.556441h 0.861381v -1.00159h 0.861381v 2.22576h 0.861381v -1.33546h 0.861381v 0.556441h 0.861381v
 -0.222576h 0.861381v 0.333865h 0.861381v -0.333865h 0.861381v 0.890306h 0.861381v -0.333865h 0.861381v -0.556441h 0.861381v 1.11288h 0.861381v -0.445153h 0.861381v -0.667729h 0.861381v 0.779017h 0.861381v -0.445153h 0.861381v 1.11288h 0.861381v
 -1.22417h 0.861381v 0.667729h 0.861381v 0.111288h 0.861381v -1.11288h 0.861381v 1.00159h 0.861381v -0.111288h 0.861381v 0.445153h 0.861381v -0.333865h 0.861381v -0.222576h 0.861381v 0.333865h 0.861381v -0.222576h 0.861381v -0.445153h 0.861381v
 1.00159h 0.861381v -1.44675h 0.861381v -0.111288h 0.861381v -43.9588h 0.861381v 44.5153h 0.861381v 0.333865h 0.861381v -0.667729h 0.861381v -0.222576h 0.861381v -0.779017h 0.861381v 1.11288h 0.861381v 0.111288h 0.861381v -0.333865h 0.861381v
 -1.33546h 0.861381v 0.222576h 0.861381v 0.890306h 0.861381v 0.222576h 0.861381v -0.111288h 0.861381v 0.222576h 1.72276v 0.111288h 1.72276v 0.333865h 0.861381v -1.33546h 0.861381v -0.445153h 0.861381v 1.33546h 0.861381v -1.22417h 0.861381v -0.111288h
 0.861381v 1.00159h 0.861381v -1.55803h 0.861381v 0.667729h 0.861381v -0.333865h 1.72276v -0.222576h 0.861381v -0.222576h 0.861381v 1.00159h 0.861381v -0.779017h 0.861381v -0.445153h 0.861381v 1.55803h 0.861381v -1.22417h 0.861381v 1.55803h 0.861381v
 0.111288h 0.861381v -0.222576h 0.861381v -0.556441h 0.861381v -0.556441h 0.861381v 1.33546h 0.861381v 1.11288h 0.861381v -0.333865h 0.861381v 0.445153h 0.861381v -0.445153h 0.861381v 0.667729h 0.861381v 0.556441h 0.861381v -0.333865h 1.72276v
 0.779017h 1.72276v -0.111288h 0.861381v -0.222576h 0.861381v 0.556441h 0.861381v 0.445153h 0.861381v -0.333865h 0.861381v -0.111288h 0.861381v 0.111288h 0.861381v 0.222576h 0.861381v 0.111288h 0.861381v -0.111288h 0.861381v 0.111288h 0.861381v
 -0.111288h 0.861381v 0.111288h 0.861381v -0.111288h 0.861381v 0.111288h 7.75243v -1.22417h 0.861381v -132.21h 0.861381v 133.435h 55.1284" fill="none" stroke="black" stroke-width="2"/>
<path d="M61.7283,161.268h 444.472" fill="none" stroke="black"/>
<text x="480.355" y="177.461" fill="black" font-size="8.53362" font-family="Helvetica">
E [keV]
</text>
<path d="M61.7283,157.065v 4.20319" fill="none" stroke="black"/>
<path d="M74.4276,159.167v 2.10159" fill="none" stroke="black"/>
<path d="M87.1268,159.167v 2.10159" fill="none" stroke="black"/>
<path d="M99.826,159.167v 2.10159" fill="none" stroke="black"/>
<path d="M112.525,159.167v 2.10159" fill="none" stroke="black"/>
<path d="M125.224,157.065v 4.20319" fill="none" stroke="black"/>
<path d="M137.924,159.167v 2.10159" fill="none" stroke="black"/>
<path d="M150.623,159.167v 2.10159" fill="none" stroke="black"/>
<path d="M163.322,159.167v 2.10159" fill="none" stroke="black"/>
<path d="M176.021,159.167v 2.10159" fill="none" stroke="black"/>
<path d="M188.72,157.065v 4.20319" fill="none" stroke="black"/>
<path d="M201.42,159.167v 2.10159" fill="none" stroke="black"/>
<path d="M214.119,159.167v 2.10159" fill="none" stroke="black"/>
<path d="M226.818,159.167v 2.10159" fill="none" stroke="black"/>
<path d="M239.517,159.167v 2.10159" fill="none" stroke="black"/>
<path d="M252.217,157.065v 4.20319" fill="none" stroke="black"/>
<path d="M264.916,159.167v 2.10159" fill="none" stroke="black"/>
<path d="M277.615,159.167v 2.10159" fill="none" stroke="black"/>
<path d="M290.314,159.167v 2.10159" fill="none" stroke="black"/>
<path d="M303.013,159.167v 2.10159" fill="none" stroke="black"/>
<path d="M315.713,157.065v 4.20319" fill="none" stroke="black"/>
<path d="M328.412,159.167v 2.10159" fill="none" stroke="black"/>
<path d="M341.111,159.167v 2.10159" fill="none" stroke="black"/>
<path d="M353.81,159.167v 2.10159" fill="none" stroke="black"/>
<path d="M366.509,159.167v 2.10159" fill="none" stroke="black"/>
<path d="M379.209,157.065v 4.20319" fill="none" stroke="black"/>
<path d="M391.908,159.167v 2.10159" fill="none" stroke="black"/>
<path d="M404.607,159.167v 2.10159" fill="none" stroke="black"/>
<path d="M417.306,159.167v 2.10159" fill="none" stroke="black"/>
<path d="M430.006,159.167v 2.10159" fill="none" stroke="black"/>
<path d="M442.705,157.065v 4.20319" fill="none" stroke="black"/>
<path d="M455.404,159.167v 2.10159" fill="none" stroke="black"/>
<path d="M468.103,159.167v 2.10159" fill="none" stroke="black"/>
<path d="M480.802,159.167v 2.10159" fill="none" stroke="black"/>
<path d="M493.502,159.167v 2.10159" fill="none" stroke="black"/>
<path d="M506.201,157.065v 4.20319" fill="none" stroke="black"/>
<text x="59.1805" y="169.416" fill="black" font-size="9.33698" font-family="Helvetica">
0
</text>
<text x="117.388" y="169.416" fill="black" font-size="9.33698" font-family="Helvetica">
500
</text>
<text x="178.434" y="169.416" fill="black" font-size="9.33698" font-family="Helvetica">
1000
</text>
<text x="241.847" y="169.416" fill="black" font-size="9.33698" font-family="Helvetica">
1500
</text>
<text x="305.733" y="169.416" fill="black" font-size="9.33698" font-family="Helvetica">
2000
</text>
<text x="369.146" y="169.416" fill="black" font-size="9.33698" font-family="Helvetica">
2500
</text>
<text x="432.559" y="169.416" fill="black" font-size="9.33698" font-family="Helvetica">
3000
</text>
<text x="495.971" y="169.416" fill="black" font-size="9.33698" font-family="Helvetica">
3500
</text>
<path d="M61.7283,161.268v -140.106" fill="none" stroke="black"/>
<path d="M75.0625,161.268h -13.3342" fill="none" stroke="black"/>
<path d="M68.3954,155.704h -6.66709" fill="none" stroke="black"/>
<path d="M68.3954,150.139h -6.66709" fill="none" stroke="black"/>
<path d="M68.3954,144.575h -6.66709" fill="none" stroke="black"/>
<path d="M75.0625,139.011h -13.3342" fill="none" stroke="black"/>
<path d="M68.3954,133.446h -6.66709" fill="none" stroke="black"/>
<path d="M68.3954,127.882h -6.66709" fill="none" stroke="black"/>
<path d="M68.3954,122.317h -6.66709" fill="none" stroke="black"/>
<path d="M75.0625,116.753h -13.3342" fill="none" stroke="black"/>
<path d="M68.3954,111.188h -6.66709" fill="none" stroke="black"/>
<path d="M68.3954,105.624h -6.66709" fill="none" stroke="black"/>
<path d="M68.3954,100.06h -6.66709" fill="none" stroke="black"/>
<path d="M75.0625,94.4952h -13.3342" fill="none" stroke="black"/>
<path d="M68.3954,88.9308h -6.66709" fill="none" stroke="black"/>
<path d="M68.3954,83.3664h -6.66709" fill="none" stroke="black"/>
<path d="M68.3954,77.802h -6.66709" fill="none" stroke="black"/>
<path d="M75.0625,72.2376h -13.3342" fill="none" stroke="black"/>
<path d="M68.3954,66.6732h -6.66709" fill="none" stroke="black"/>
<path d="M68.3954,61.1088h -6.66709" fill="none" stroke="black"/>
<path d="M68.3954,55.5444h -6.66709" fill="none" stroke="black"/>
<path d="M75.0625,49.98h -13.3342" fill="none" stroke="black"/>
<path d="M68.3954,44.4156h -6.66709" fill="none" stroke="black"/>
<path d="M68.3954,38.8511h -6.66709" fill="none" stroke="black"/>
<path d="M68.3954,33.2867h -6.66709" fill="none" stroke="black"/>
<path d="M75.0625,27.7223h -13.3342" fill="none" stroke="black"/>
<path d="M75.0625,27.7223h -13.3342" fill="none" stroke="black"/>
<path d="M68.3954,22.1579h -6.66709" fill="none" stroke="black"/>
<text x="53.5017" y="164.684" fill="black" font-size="10.1403" font-family="Helvetica">
0
</text>
<text x="42.6174" y="142.442" fill="black" font-size="10.1403" font-family="Helvetica">
200
</text>
<text x="42.6174" y="120.2" fill="black" font-size="10.1403" font-family="Helvetica">
400
</text>
<text x="42.6174" y="97.9585" fill="black" font-size="10.1403" font-family="Helvetica">
600
</text>
<text x="42.6174" y="75.7167" fill="black" font-size="10.1403" font-family="Helvetica">
800
</text>
<text x="36.9387" y="53.475" fill="black" font-size="10.1403" font-family="Helvetica">
1000
</text>
<text x="36.9387" y="31.2332" fill="black" font-size="10.1403" font-family="Helvetica">
1200
</text>
<text x="382.396" y="26.9741" fill="black" font-size="11.4676" font-family="Helvetica">
3
</text>
<text x="244.213" y="18.456" fill="black" font-size="16.9514" font-family="Helvetica">
 z detektorow LaBr
</text>
<text x="236.168" y="18.456" fill="black" font-size="16.9514" font-family="Times">
&#0947;
</text>
<text x="179.381" y="18.456" fill="black" font-size="16.9514" font-family="Helvetica">
Widmo 
</text>
<path d="M61.7283,160.267h 0.861381v -0.445153h 0.861381v -0.111288h 0.861381v -0.556441h 0.861381v 0.890306h 0.861381v -0.667729h 0.861381v -0.222576h 0.861381v 1.00159h 0.861381v -0.445153h 1.72276v -0.333865h 0.861381v 0.111288h 0.861381v
 -0.333865h 0.861381v 1.11288h 0.861381v -0.111288h 0.861381v -0.445153h 0.861381v 0.556441h 0.861381v 0.222576h 0.861381v -0.556441h 0.861381v -0.890306h 0.861381v 1.11288h 0.861381v -0.890306h 0.861381v 0.333865h 0.861381v -0.779017h 0.861381v
 1.00159h 0.861381v -0.556441h 0.861381v 0.779017h 0.861381v 0.111288h 0.861381v -0.445153h 0.861381v -0.222576h 0.861381v -0.222576h 0.861381v -0.667729h 0.861381v 1.33546h 0.861381v -0.222576h 0.861381v -0.111288h 0.861381v -0.667729h 0.861381v
 0.556441h 0.861381v -1.33546h 0.861381v 0.333865h 0.861381v 0.667729h 0.861381v 0.222576h 0.861381v -0.779017h 0.861381v 1.22417h 0.861381v -0.779017h 0.861381v 0.667729h 0.861381v -0.222576h 0.861381v -0.333865h 0.861381v 0.111288h 0.861381v
 -0.779017h 0.861381v 0.111288h 0.861381v 1.11288h 0.861381v -0.445153h 0.861381v -0.333865h 0.861381v 1.22417h 0.861381v -0.222576h 0.861381v -0.890306h 0.861381v 1.44675h 0.861381v -1.11288h 0.861381v 0.222576h 0.861381v 0.333865h 0.861381v
 -0.333865h 0.861381v -0.111288h 0.861381v -0.222576h 0.861381v 0.667729h 0.861381v -0.333865h 0.861381v 0.667729h 0.861381v -0.222576h 0.861381v 0.333865h 0.861381v -0.556441h 1.72276v 0.111288h 0.861381v -0.667729h 0.861381v 0.667729h 0.861381v
 -0.222576h 1.72276v -9.12563h 0.861381v 9.79336h 0.861381v -0.556441h 0.861381v 1.11288h 0.861381v -0.111288h 0.861381v -1.11288h 0.861381v 0.779017h 0.861381v -0.667729h 0.861381v 0.222576h 0.861381v -0.445153h 0.861381v 1.44675h 0.861381v
 -0.890306h 0.861381v -0.222576h 0.861381v -0.111288h 0.861381v 0.445153h 1.72276v -0.445153h 0.861381v 0.333865h 0.861381v 0.222576h 0.861381v 0.111288h 0.861381v -0.445153h 0.861381v 0.333865h 0.861381v 0.111288h 1.72276v -0.445153h 0.861381v
 -0.333865h 0.861381v 1.11288h 0.861381v -0.111288h 0.861381v -0.556441h 0.861381v 0.222576h 0.861381v 0.222576h 0.861381v -1.00159h 0.861381v 0.779017h 2.58414v -0.556441h 0.861381v 0.445153h 0.861381v -0.222576h 0.861381v 0.667729h 0.861381v
 -0.667729h 0.861381v 0.222576h 0.861381v 0.222576h 0.861381v -1.00159h 0.861381v 1.11288h 0.861381v 0.111288h 0.861381v -0.445153h 0.861381v -0.890306h 0.861381v 0.445153h 0.861381v 0.445153h 0.861381v -0.556441h 0.861381v 0.667729h 0.861381v
 -1.00159h 0.861381v 0.222576h 0.861381v 0.667729h 1.72276v 0.445153h 0.861381v -1.22417h 0.861381v 0.445153h 0.861381v -0.779017h 0.861381v 1.22417h 0.861381v 0.333865h 0.861381v -0.556441h 0.861381v 0.333865h 0.861381v -0.222576h 0.861381v
 0.333865h 0.861381v -0.779017h 0.861381v -0.111288h 0.861381v 0.222576h 0.861381v 0.111288h 0.861381v 0.667729h 0.861381v -0.445153h 0.861381v -0.111288h 0.861381v -0.222576h 0.861381v -0.333865h 0.861381v 1.00159h 0.861381v -0.556441h 0.861381v
 -0.111288h 0.861381v 0.111288h 0.861381v 0.222576h 0.861381v -0.333865h 0.861381v 0.445153h 0.861381v -0.222576h 0.861381v 0.445153h 0.861381v -0.556441h 0.861381v 0.333865h 0.861381v -0.222576h 0.861381v -0.445153h 0.861381v 0.667729h 0.861381v
 -0.779017h 0.861381v 0.667729h 0.861381v -0.222576h 0.861381v -0.333865h 0.861381v 1.11288h 0.861381v -0.779017h 0.861381v -0.779017h 0.861381v 0.779017h 0.861381v 0.111288h 0.861381v -0.111288h 0.861381v 0.667729h 0.861381v -0.667729h 0.861381v
 0.111288h 0.861381v 0.222576h 0.861381v -0.333865h 0.861381v 0.222576h 0.861381v -0.445153h 0.861381v -0.111288h 0.861381v 0.445153h 0.861381v 0.222576h 0.861381v 0.333865h 0.861381v -0.111288h 0.861381v -0.222576h 0.861381v -0.333865h 1.72276v
 0.556441h 0.861381v -0.779017h 0.861381v -0.111288h 0.861381v 0.667729h 0.861381v -0.111288h 0.861381v -0.890306h 0.861381v 0.445153h 0.861381v 0.111288h 0.861381v 0.222576h 0.861381v 0.556441h 0.861381v -1.22417h 0.861381v -0.333865h 0.861381v
 1.44675h 0.861381v -0.890306h 0.861381v 0.779017h 0.861381v -0.667729h 0.861381v 0.556441h 0.861381v -1.11288h 0.861381v 1.22417h 0.861381v -0.890306h 0.861381v 1.22417h 0.861381v -1.33546h 0.861381v 0.222576h 0.861381v 0.333865h 1.72276v -0.111288h
 0.861381v 0.333865h 1.72276v -0.445153h 0.861381v 0.222576h 0.861381v -0.111288h 0.861381v 0.556441h 0.861381v -1.22417h 0.861381v 1.44675h 0.861381v -0.779017h 0.861381v 0.445153h 0.861381v 0.333865h 0.861381v -0.667729h 1.72276v 0.445153h
 0.861381v -0.445153h 0.861381v 0.111288h 0.861381v -0.667729h 0.861381v 0.445153h 0.861381v -0.556441h 0.861381v 0.779017h 0.861381v -0.333865h 0.861381v 0.445153h 0.861381v -0.445153h 0.861381v -0.667729h 0.861381v 0.556441h 0.861381v 0.222576h
 0.861381v 0.222576h 2.58414v -0.333865h 0.861381v 0.556441h 0.861381v -0.667729h 0.861381v 0.222576h 0.861381v -0.667729h 0.861381v 1.00159h 0.861381v -0.556441h 0.861381v 0.667729h 0.861381v -0.333865h 0.861381v 0.222576h 0.861381v 0.333865h
 0.861381v -0.333865h 0.861381v -1.00159h 0.861381v 0.222576h 0.861381v 0.556441h 0.861381v -0.111288h 0.861381v -0.333865h 0.861381v 0.667729h 0.861381v -0.556441h 0.861381v -0.333865h 0.861381v 0.667729h 0.861381v -0.222576h 0.861381v 0.333865h
 0.861381v -0.222576h 0.861381v -0.890306h 0.861381v 1.11288h 0.861381v -0.111288h 0.861381v -0.333865h 0.861381v 0.333865h 0.861381v -0.779017h 0.861381v 0.445153h 0.861381v -0.445153h 1.72276v 0.222576h 0.861381v -0.222576h 0.861381v 0.445153h
 0.861381v -0.445153h 0.861381v 0.667729h 0.861381v -0.556441h 0.861381v -24.2608h 0.861381v 18.6964h 0.861381v 5.6757h 0.861381v -0.111288h 0.861381v -0.222576h 0.861381v 0.445153h 0.861381v -1.11288h 0.861381v 0.445153h 0.861381v -0.779017h
 0.861381v 0.333865h 1.72276v 1.22417h 0.861381v -1.22417h 0.861381v 0.111288h 0.861381v 0.111288h 0.861381v 1.22417h 0.861381v -1.78061h 0.861381v 1.00159h 0.861381v -0.222576h 0.861381v -0.890306h 0.861381v 1.00159h 0.861381v 0.222576h 0.861381v
 -1.00159h 0.861381v 0.890306h 0.861381v 0.333865h 0.861381v -1.33546h 0.861381v 1.22417h 0.861381v -0.445153h 0.861381v -1.22417h 0.861381v 1.33546h 0.861381v -0.556441h 0.861381v 0.667729h 0.861381v 0.111288h 0.861381v -0.667729h 0.861381v
 -0.222576h 0.861381v 0.667729h 0.861381v -0.222576h 0.861381v -0.333865h 0.861381v 0.667729h 0.861381v -1.00159h 0.861381v -0.222576h 0.861381v 0.556441h 0.861381v 0.445153h 0.861381v -0.556441h 0.861381v -0.333865h 0.861381v -0.222576h 0.861381v
 -0.222576h 0.861381v -0.333865h 0.861381v 1.33546h 0.861381v 0.333865h 0.861381v -1.44675h 0.861381v 2.11448h 0.861381v -0.667729h 0.861381v 0.890306h 0.861381v -0.779017h 0.861381v -1.22417h 0.861381v 0.556441h 0.861381v 0.222576h 0.861381v
 0.333865h 0.861381v 0.111288h 0.861381v 0.779017h 0.861381v -1.33546h 0.861381v 0.333865h 1.72276v 0.445153h 0.861381v -0.333865h 0.861381v 0.890306h 0.861381v -0.333865h 0.861381v -1.11288h 0.861381v -0.333865h 0.861381v 1.33546h 0.861381v
 -1.11288h 0.861381v 0.556441h 0.861381v -0.556441h 0.861381v 1.11288h 0.861381v -0.111288h 0.861381v -43.2911h 0.861381v 41.3992h 0.861381v 1.44675h 0.861381v -0.222576h 0.861381v -0.779017h 0.861381v -0.222576h 0.861381v 0.779017h 0.861381v
 -0.333865h 0.861381v 0.111288h 0.861381v -0.556441h 0.861381v 1.66932h 0.861381v -2.22576h 0.861381v 0.333865h 0.861381v 1.55803h 0.861381v -1.66932h 0.861381v 0.556441h 1.72276v -0.222576h 0.861381v 0.333865h 0.861381v -0.890306h 0.861381v 1.22417h
 0.861381v -0.779017h 0.861381v -0.556441h 0.861381v 1.66932h 0.861381v -1.33546h 0.861381v 0.333865h 0.861381v 0.333865h 0.861381v -0.222576h 0.861381v -0.333865h 0.861381v -0.222576h 0.861381v -0.333865h 0.861381v 1.22417h 0.861381v -1.78061h
 0.861381v 1.00159h 0.861381v -1.44675h 0.861381v 1.22417h 0.861381v 0.556441h 0.861381v -1.55803h 0.861381v 0.445153h 0.861381v 1.66932h 0.861381v -0.556441h 0.861381v 1.66932h 0.861381v 0.333865h 0.861381v -0.222576h 0.861381v 0.111288h 0.861381v
 0.445153h 1.72276v -0.222576h 1.72276v 0.222576h 0.861381v -0.222576h 0.861381v 0.333865h 1.72276v 0.445153h 0.861381v -0.333865h 0.861381v 0.779017h 0.861381v 0.222576h 0.861381v -0.111288h 2.58414v 0.111288h 0.861381v 0.111288h 0.861381v
 -0.111288h 0.861381v 0.111288h 10.3366v -136.551h 0.861381v 136.551h 70.6332" fill="none" stroke="#ff0000" stroke-width="2"/>
<rect x="89.5079" y="24.6645" width="166.677" height="35.0266" fill="white"/>
<path d="M89.5079,59.6911h 166.677" fill="none" stroke="black"/>
<path d="M256.185,59.6911v -35.0266" fill="none" stroke="black"/>
<path d="M256.185,24.6645h -166.677" fill="none" stroke="black"/>
<path d="M89.5079,24.6645v 35.0266" fill="none" stroke="black"/>
<text x="225.757" y="36.9119" fill="black" font-size="13.3538" font-family="Times">
&#0176;
</text>
<text x="203.516" y="36.9119" fill="black" font-size="13.3538" font-family="Helvetica">
 = 0
</text>
<text x="196.89" y="36.9119" fill="black" font-size="13.3538" font-family="Times">
&#0966;
</text>
<text x="131.111" y="36.9119" fill="black" font-size="13.3538" font-family="Helvetica">
detektor 0, 
</text>
<path d="M95.7583,33.4212h 29.1685" fill="none" stroke="black" stroke-width="2"/>
<text x="240.427" y="54.4214" fill="black" font-size="13.3538" font-family="Times">
&#0176;
</text>
<text x="203.516" y="54.4214" fill="black" font-size="13.3538" font-family="Helvetica">
 = 180
</text>
<text x="196.89" y="54.4214" fill="black" font-size="13.3538" font-family="Times">
&#0966;
</text>
<text x="131.111" y="54.4214" fill="black" font-size="13.3538" font-family="Helvetica">
detektor 5, 
</text>
<path d="M95.7583,50.9345h 29.1685" fill="none" stroke="#ff0000" stroke-width="2"/>
<text x="382.396" y="26.9741" fill="black" font-size="11.4676" font-family="Helvetica">
3
</text>
<text x="244.213" y="18.456" fill="black" font-size="16.9514" font-family="Helvetica">
 z detektorow LaBr
</text>
<text x="236.168" y="18.456" fill="black" font-size="16.9514" font-family="Times">
&#0947;
</text>
<text x="179.381" y="18.456" fill="black" font-size="16.9514" font-family="Helvetica">
Widmo 
</text>
<rect x="6.16929" y="186.079" width="555.591" height="175.133" fill="white"/>
<rect x="61.7283" y="203.592" width="444.472" height="140.106" fill="white"/>
<rect x="61.7283" y="203.592" width="444.472" height="140.106" fill="none" stroke="black"/>
<path d="M61.7283,341.781h 0.861381v -0.766865h 0.861381v -0.575149h 0.861381v 0.191716h 0.861381v -0.958581h 0.861381v 0.766865h 0.861381v 0.958581h 0.861381v -0.958581h 0.861381v 0.766865h 0.861381v -0.958581h 0.861381v 1.72545h 0.861381v
 -0.575149h 1.72276v -1.34201h 0.861381v 0.958581h 0.861381v -1.72545h 0.861381v 2.3006h 0.861381v -1.34201h 0.861381v 0.191716h 0.861381v 0.383433h 0.861381v -0.383433h 0.861381v 0.383433h 0.861381v 0.191716h 0.861381v -0.575149h 0.861381v
 -0.191716h 0.861381v 0.191716h 0.861381v 0.191716h 0.861381v -0.383433h 0.861381v 0.766865h 0.861381v -1.34201h 0.861381v 1.1503h 1.72276v 0.575149h 0.861381v -1.53373h 0.861381v 1.1503h 0.861381v -0.766865h 0.861381v 1.53373h 0.861381v -1.34201h
 1.72276v -1.72545h 0.861381v 1.91716h 0.861381v -0.575149h 0.861381v 0.383433h 0.861381v -2.3006h 0.861381v 1.72545h 0.861381v -0.191716h 0.861381v 0.575149h 0.861381v -0.575149h 0.861381v -0.958581h 0.861381v 2.10888h 0.861381v -0.575149h 0.861381v
 0.766865h 0.861381v -0.766865h 0.861381v 0.191716h 1.72276v -0.191716h 0.861381v 1.72545h 0.861381v 0.575149h 0.861381v -1.34201h 0.861381v -0.383433h 1.72276v -0.191716h 0.861381v 0.766865h 0.861381v 0.383433h 0.861381v -0.575149h 0.861381v
 0.191716h 0.861381v -0.191716h 0.861381v 0.766865h 0.861381v -2.10888h 0.861381v 1.91716h 0.861381v -0.575149h 0.861381v 0.766865h 0.861381v -0.383433h 1.72276v 0.575149h 0.861381v -15.1456h 0.861381v 14.5704h 0.861381v 0.191716h 0.861381v 0.575149h
 0.861381v 0.766865h 0.861381v -0.191716h 0.861381v -1.1503h 0.861381v -0.383433h 0.861381v 0.383433h 1.72276v 0.383433h 0.861381v -0.383433h 2.58414v -0.383433h 0.861381v 1.34201h 0.861381v -1.34201h 0.861381v 1.53373h 0.861381v -0.191716h 0.861381v
 -0.575149h 0.861381v -0.575149h 0.861381v -0.191716h 0.861381v 0.958581h 0.861381v -1.34201h 0.861381v 1.53373h 0.861381v -0.766865h 0.861381v 0.191716h 1.72276v 1.1503h 0.861381v -1.53373h 0.861381v -0.766865h 0.861381v 0.766865h 0.861381v 1.53373h
 0.861381v -0.575149h 0.861381v -0.383433h 1.72276v -0.766865h 0.861381v 0.766865h 0.861381v 0.383433h 0.861381v -1.1503h 0.861381v 0.383433h 0.861381v 0.191716h 0.861381v 0.766865h 0.861381v -1.34201h 0.861381v -0.575149h 0.861381v 0.958581h
 0.861381v 0.383433h 0.861381v -0.575149h 0.861381v 0.575149h 0.861381v -0.575149h 0.861381v 1.1503h 1.72276v -0.383433h 0.861381v 0.191716h 0.861381v -0.575149h 0.861381v -0.575149h 0.861381v 1.34201h 0.861381v -0.575149h 0.861381v -1.1503h
 0.861381v 0.575149h 0.861381v 0.383433h 0.861381v -0.191716h 0.861381v -0.575149h 0.861381v 0.766865h 0.861381v -0.191716h 0.861381v -0.766865h 0.861381v 0.575149h 0.861381v 0.191716h 0.861381v 0.383433h 0.861381v -0.766865h 0.861381v 0.958581h
 0.861381v -0.766865h 0.861381v 0.575149h 0.861381v -0.383433h 0.861381v -0.383433h 0.861381v -0.191716h 0.861381v 0.383433h 1.72276v -0.191716h 0.861381v 1.53373h 0.861381v -1.34201h 0.861381v 0.575149h 0.861381v 0.191716h 0.861381v -0.958581h
 0.861381v 0.575149h 0.861381v 0.575149h 0.861381v -0.958581h 0.861381v -0.383433h 0.861381v 0.766865h 0.861381v 0.575149h 0.861381v -1.72545h 0.861381v -0.191716h 0.861381v 0.575149h 0.861381v 0.766865h 0.861381v 1.1503h 0.861381v -0.383433h
 1.72276v -1.72545h 0.861381v 1.53373h 0.861381v -0.958581h 0.861381v 0.383433h 0.861381v 0.383433h 0.861381v -0.191716h 1.72276v -0.766865h 0.861381v 1.1503h 0.861381v -0.383433h 2.58414v -0.575149h 0.861381v -0.191716h 0.861381v 0.958581h 0.861381v
 -0.191716h 1.72276v -0.383433h 0.861381v 0.958581h 0.861381v -1.1503h 0.861381v 0.383433h 0.861381v 0.575149h 0.861381v -0.575149h 0.861381v 0.191716h 0.861381v 0.575149h 0.861381v -1.1503h 0.861381v -0.766865h 0.861381v 1.34201h 0.861381v
 -0.766865h 0.861381v 0.191716h 0.861381v 0.766865h 0.861381v -1.72545h 0.861381v 0.383433h 0.861381v 1.1503h 1.72276v -1.34201h 0.861381v 0.383433h 0.861381v -0.191716h 0.861381v 1.34201h 0.861381v 0.766865h 0.861381v -1.72545h 0.861381v -0.958581h
 0.861381v 1.34201h 0.861381v 0.766865h 0.861381v -2.10888h 0.861381v 1.34201h 0.861381v 0.383433h 0.861381v -1.1503h 0.861381v 0.383433h 0.861381v -1.53373h 0.861381v 1.72545h 0.861381v -0.191716h 0.861381v 0.191716h 0.861381v -0.766865h 0.861381v
 0.766865h 1.72276v -0.191716h 0.861381v 0.575149h 0.861381v -1.53373h 0.861381v 1.72545h 0.861381v -1.1503h 0.861381v 1.72545h 0.861381v -2.49231h 0.861381v 1.72545h 0.861381v -0.191716h 0.861381v 0.191716h 0.861381v 0.191716h 0.861381v -0.958581h
 0.861381v 1.34201h 0.861381v 0.191716h 0.861381v -1.91716h 0.861381v 0.766865h 1.72276v 1.1503h 0.861381v -1.53373h 0.861381v 0.383433h 0.861381v -0.575149h 0.861381v 0.383433h 0.861381v 1.1503h 0.861381v -1.91716h 0.861381v 1.34201h 0.861381v
 0.191716h 0.861381v -1.1503h 0.861381v 0.766865h 0.861381v -0.958581h 0.861381v -0.191716h 0.861381v 1.53373h 0.861381v -2.10888h 0.861381v 2.10888h 0.861381v -0.958581h 0.861381v -0.191716h 0.861381v -0.191716h 0.861381v 0.191716h 0.861381v
 0.191716h 0.861381v 0.766865h 0.861381v -0.958581h 0.861381v 0.383433h 0.861381v -0.383433h 0.861381v -0.383433h 0.861381v 1.53373h 0.861381v -0.191716h 0.861381v -0.383433h 0.861381v -0.191716h 0.861381v 0.191716h 0.861381v -1.53373h 0.861381v
 1.91716h 0.861381v -0.383433h 0.861381v 0.191716h 1.72276v -0.766865h 0.861381v -0.575149h 0.861381v 2.3006h 0.861381v -2.3006h 0.861381v -0.191716h 0.861381v 1.72545h 0.861381v -0.191716h 0.861381v 1.1503h 0.861381v -2.3006h 0.861381v 0.191716h
 0.861381v 0.766865h 0.861381v -0.191716h 0.861381v 0.575149h 0.861381v -0.958581h 0.861381v 0.191716h 0.861381v -0.191716h 0.861381v -7.66865h 0.861381v -17.8296h 0.861381v 2.49231h 0.861381v 23.006h 0.861381v -1.91716h 0.861381v 0.958581h 0.861381v
 -1.91716h 0.861381v 1.34201h 0.861381v 0.958581h 0.861381v -1.91716h 0.861381v 2.3006h 0.861381v -2.87574h 0.861381v 1.72545h 0.861381v -0.958581h 0.861381v 0.766865h 0.861381v -0.575149h 1.72276v 0.191716h 0.861381v 0.191716h 0.861381v -0.575149h
 0.861381v -0.383433h 0.861381v 0.766865h 0.861381v 1.91716h 0.861381v -2.10888h 0.861381v -0.191716h 0.861381v 0.958581h 0.861381v 0.383433h 0.861381v -1.34201h 0.861381v 2.10888h 0.861381v -0.958581h 0.861381v -0.383433h 1.72276v -0.575149h
 0.861381v 0.766865h 0.861381v -1.72545h 0.861381v 3.06746h 0.861381v -1.91716h 0.861381v 0.191716h 0.861381v -0.383433h 1.72276v 0.383433h 0.861381v 1.34201h 0.861381v -1.34201h 0.861381v 0.575149h 0.861381v -1.1503h 1.72276v 0.766865h 0.861381v
 0.383433h 0.861381v -0.383433h 0.861381v -1.1503h 1.72276v 0.958581h 0.861381v -0.766865h 0.861381v -0.191716h 0.861381v 2.49231h 0.861381v -2.3006h 0.861381v 1.1503h 0.861381v -0.383433h 0.861381v 1.34201h 0.861381v -0.766865h 0.861381v 0.958581h
 0.861381v -0.575149h 0.861381v -2.49231h 0.861381v 3.45089h 0.861381v -2.3006h 0.861381v -1.1503h 0.861381v 3.25918h 0.861381v -1.91716h 0.861381v 0.383433h 0.861381v 0.191716h 0.861381v -0.766865h 0.861381v -0.766865h 0.861381v 0.958581h 0.861381v
 0.958581h 0.861381v -0.766865h 0.861381v -2.3006h 0.861381v -28.1823h 0.861381v -15.3373h 0.861381v 40.8356h 0.861381v 2.68403h 0.861381v 2.10888h 0.861381v -1.91716h 0.861381v 1.53373h 0.861381v 0.383433h 0.861381v -1.1503h 0.861381v 0.191716h
 0.861381v 0.191716h 0.861381v 0.766865h 0.861381v -0.383433h 0.861381v -0.191716h 0.861381v -2.10888h 0.861381v -0.575149h 0.861381v 2.10888h 0.861381v 1.34201h 0.861381v -4.02604h 0.861381v 1.91716h 0.861381v 1.72545h 0.861381v -2.10888h 0.861381v
 1.53373h 0.861381v 0.575149h 0.861381v 1.72545h 0.861381v -2.68403h 0.861381v 0.383433h 0.861381v -0.191716h 0.861381v -0.575149h 0.861381v 0.575149h 0.861381v -1.34201h 0.861381v -1.1503h 0.861381v -1.91716h 0.861381v 3.06746h 0.861381v -2.49231h
 0.861381v 3.25918h 0.861381v -0.575149h 0.861381v 0.383433h 0.861381v -0.383433h 0.861381v -0.575149h 0.861381v -0.383433h 0.861381v 1.34201h 0.861381v 1.53373h 1.72276v 1.34201h 0.861381v 0.191716h 0.861381v 1.53373h 1.72276v -0.575149h 0.861381v
 -0.766865h 0.861381v 0.191716h 0.861381v 1.72545h 0.861381v -0.191716h 0.861381v 0.383433h 0.861381v 0.191716h 0.861381v -0.383433h 1.72276v 0.766865h 0.861381v 0.191716h 2.58414v -0.383433h 0.861381v 0.575149h 2.58414v -0.191716h 0.861381v
 0.191716h 6.89105v -0.766865h 0.861381v -48.8877h 0.861381v -83.78h 0.861381v 91.4487h 0.861381v 41.9859h 55.9897" fill="none" stroke="#ffcc00" stroke-width="2"/>
<path d="M61.7283,343.698h 444.472" fill="none" stroke="black"/>
<text x="480.355" y="359.655" fill="black" font-size="8.53362" font-family="Helvetica">
E [keV]
</text>
<path d="M61.7283,339.495v 4.20319" fill="none" stroke="black"/>
<path d="M74.4276,341.597v 2.10159" fill="none" stroke="black"/>
<path d="M87.1268,341.597v 2.10159" fill="none" stroke="black"/>
<path d="M99.826,341.597v 2.10159" fill="none" stroke="black"/>
<path d="M112.525,341.597v 2.10159" fill="none" stroke="black"/>
<path d="M125.224,339.495v 4.20319" fill="none" stroke="black"/>
<path d="M137.924,341.597v 2.10159" fill="none" stroke="black"/>
<path d="M150.623,341.597v 2.10159" fill="none" stroke="black"/>
<path d="M163.322,341.597v 2.10159" fill="none" stroke="black"/>
<path d="M176.021,341.597v 2.10159" fill="none" stroke="black"/>
<path d="M188.72,339.495v 4.20319" fill="none" stroke="black"/>
<path d="M201.42,341.597v 2.10159" fill="none" stroke="black"/>
<path d="M214.119,341.597v 2.10159" fill="none" stroke="black"/>
<path d="M226.818,341.597v 2.10159" fill="none" stroke="black"/>
<path d="M239.517,341.597v 2.10159" fill="none" stroke="black"/>
<path d="M252.217,339.495v 4.20319" fill="none" stroke="black"/>
<path d="M264.916,341.597v 2.10159" fill="none" stroke="black"/>
<path d="M277.615,341.597v 2.10159" fill="none" stroke="black"/>
<path d="M290.314,341.597v 2.10159" fill="none" stroke="black"/>
<path d="M303.013,341.597v 2.10159" fill="none" stroke="black"/>
<path d="M315.713,339.495v 4.20319" fill="none" stroke="black"/>
<path d="M328.412,341.597v 2.10159" fill="none" stroke="black"/>
<path d="M341.111,341.597v 2.10159" fill="none" stroke="black"/>
<path d="M353.81,341.597v 2.10159" fill="none" stroke="black"/>
<path d="M366.509,341.597v 2.10159" fill="none" stroke="black"/>
<path d="M379.209,339.495v 4.20319" fill="none" stroke="black"/>
<path d="M391.908,341.597v 2.10159" fill="none" stroke="black"/>
<path d="M404.607,341.597v 2.10159" fill="none" stroke="black"/>
<path d="M417.306,341.597v 2.10159" fill="none" stroke="black"/>
<path d="M430.006,341.597v 2.10159" fill="none" stroke="black"/>
<path d="M442.705,339.495v 4.20319" fill="none" stroke="black"/>
<path d="M455.404,341.597v 2.10159" fill="none" stroke="black"/>
<path d="M468.103,341.597v 2.10159" fill="none" stroke="black"/>
<path d="M480.802,341.597v 2.10159" fill="none" stroke="black"/>
<path d="M493.502,341.597v 2.10159" fill="none" stroke="black"/>
<path d="M506.201,339.495v 4.20319" fill="none" stroke="black"/>
<text x="59.1805" y="352.083" fill="black" font-size="9.33698" font-family="Helvetica">
0
</text>
<text x="117.388" y="352.083" fill="black" font-size="9.33698" font-family="Helvetica">
500
</text>
<text x="178.434" y="352.083" fill="black" font-size="9.33698" font-family="Helvetica">
1000
</text>
<text x="241.847" y="352.083" fill="black" font-size="9.33698" font-family="Helvetica">
1500
</text>
<text x="305.733" y="352.083" fill="black" font-size="9.33698" font-family="Helvetica">
2000
</text>
<text x="369.146" y="352.083" fill="black" font-size="9.33698" font-family="Helvetica">
2500
</text>
<text x="432.559" y="352.083" fill="black" font-size="9.33698" font-family="Helvetica">
3000
</text>
<text x="495.971" y="352.083" fill="black" font-size="9.33698" font-family="Helvetica">
3500
</text>
<path d="M61.7283,343.698v -140.106" fill="none" stroke="black"/>
<path d="M75.0625,343.698h -13.3342" fill="none" stroke="black"/>
<path d="M68.3954,339.864h -6.66709" fill="none" stroke="black"/>
<path d="M68.3954,336.03h -6.66709" fill="none" stroke="black"/>
<path d="M68.3954,332.195h -6.66709" fill="none" stroke="black"/>
<path d="M68.3954,328.361h -6.66709" fill="none" stroke="black"/>
<path d="M75.0625,324.527h -13.3342" fill="none" stroke="black"/>
<path d="M68.3954,320.692h -6.66709" fill="none" stroke="black"/>
<path d="M68.3954,316.858h -6.66709" fill="none" stroke="black"/>
<path d="M68.3954,313.024h -6.66709" fill="none" stroke="black"/>
<path d="M68.3954,309.189h -6.66709" fill="none" stroke="black"/>
<path d="M75.0625,305.355h -13.3342" fill="none" stroke="black"/>
<path d="M68.3954,301.521h -6.66709" fill="none" stroke="black"/>
<path d="M68.3954,297.686h -6.66709" fill="none" stroke="black"/>
<path d="M68.3954,293.852h -6.66709" fill="none" stroke="black"/>
<path d="M68.3954,290.018h -6.66709" fill="none" stroke="black"/>
<path d="M75.0625,286.183h -13.3342" fill="none" stroke="black"/>
<path d="M68.3954,282.349h -6.66709" fill="none" stroke="black"/>
<path d="M68.3954,278.515h -6.66709" fill="none" stroke="black"/>
<path d="M68.3954,274.68h -6.66709" fill="none" stroke="black"/>
<path d="M68.3954,270.846h -6.66709" fill="none" stroke="black"/>
<path d="M75.0625,267.012h -13.3342" fill="none" stroke="black"/>
<path d="M68.3954,263.177h -6.66709" fill="none" stroke="black"/>
<path d="M68.3954,259.343h -6.66709" fill="none" stroke="black"/>
<path d="M68.3954,255.509h -6.66709" fill="none" stroke="black"/>
<path d="M68.3954,251.674h -6.66709" fill="none" stroke="black"/>
<path d="M75.0625,247.84h -13.3342" fill="none" stroke="black"/>
<path d="M68.3954,244.006h -6.66709" fill="none" stroke="black"/>
<path d="M68.3954,240.171h -6.66709" fill="none" stroke="black"/>
<path d="M68.3954,236.337h -6.66709" fill="none" stroke="black"/>
<path d="M68.3954,232.503h -6.66709" fill="none" stroke="black"/>
<path d="M75.0625,228.668h -13.3342" fill="none" stroke="black"/>
<path d="M68.3954,224.834h -6.66709" fill="none" stroke="black"/>
<path d="M68.3954,221h -6.66709" fill="none" stroke="black"/>
<path d="M68.3954,217.165h -6.66709" fill="none" stroke="black"/>
<path d="M68.3954,213.331h -6.66709" fill="none" stroke="black"/>
<path d="M75.0625,209.497h -13.3342" fill="none" stroke="black"/>
<path d="M75.0625,209.497h -13.3342" fill="none" stroke="black"/>
<path d="M68.3954,205.662h -6.66709" fill="none" stroke="black"/>
<text x="53.5017" y="347.351" fill="black" font-size="10.1403" font-family="Helvetica">
0
</text>
<text x="42.6174" y="327.948" fill="black" font-size="10.1403" font-family="Helvetica">
100
</text>
<text x="42.6174" y="309.019" fill="black" font-size="10.1403" font-family="Helvetica">
200
</text>
<text x="42.6174" y="289.617" fill="black" font-size="10.1403" font-family="Helvetica">
300
</text>
<text x="42.6174" y="270.687" fill="black" font-size="10.1403" font-family="Helvetica">
400
</text>
<text x="42.6174" y="251.285" fill="black" font-size="10.1403" font-family="Helvetica">
500
</text>
<text x="42.6174" y="232.356" fill="black" font-size="10.1403" font-family="Helvetica">
600
</text>
<text x="42.6174" y="212.953" fill="black" font-size="10.1403" font-family="Helvetica">
700
</text>
<path d="M61.7283,340.439h 1.72276v -0.575149h 0.861381v 0.958581h 1.72276v -0.383433h 0.861381v 0.383433h 0.861381v 0.383433h 0.861381v -0.383433h 0.861381v 1.1503h 0.861381v -1.53373h 1.72276v 0.575149h 0.861381v -1.72545h 0.861381v 1.91716h
 0.861381v 0.575149h 0.861381v -0.958581h 0.861381v -1.34201h 0.861381v 1.53373h 0.861381v -0.191716h 0.861381v 0.383433h 0.861381v -0.575149h 0.861381v 0.383433h 0.861381v 0.383433h 0.861381v -0.191716h 0.861381v -0.766865h 0.861381v -0.766865h
 0.861381v 0.383433h 0.861381v -0.191716h 0.861381v -0.191716h 0.861381v 1.34201h 0.861381v 0.575149h 0.861381v -0.383433h 0.861381v -1.72545h 0.861381v -0.383433h 0.861381v 1.1503h 0.861381v -0.191716h 0.861381v -0.575149h 0.861381v 0.766865h
 0.861381v 0.383433h 0.861381v -0.575149h 1.72276v 0.383433h 1.72276v 0.191716h 1.72276v -1.72545h 0.861381v 1.72545h 0.861381v -0.575149h 0.861381v 0.383433h 0.861381v -1.1503h 0.861381v 1.91716h 0.861381v -1.1503h 0.861381v 0.766865h 0.861381v
 0.191716h 0.861381v -0.191716h 0.861381v -0.383433h 0.861381v -0.575149h 0.861381v 0.575149h 0.861381v 0.191716h 1.72276v -0.191716h 0.861381v 0.958581h 0.861381v 0.383433h 0.861381v 0.383433h 0.861381v -1.72545h 0.861381v 1.72545h 0.861381v
 -1.72545h 0.861381v 0.575149h 0.861381v 1.34201h 0.861381v -0.191716h 0.861381v 0.383433h 0.861381v -0.766865h 0.861381v -0.191716h 0.861381v -0.191716h 0.861381v -17.6379h 0.861381v 17.2545h 0.861381v 1.1503h 0.861381v -0.191716h 0.861381v
 -0.575149h 0.861381v 1.1503h 0.861381v -1.1503h 0.861381v 0.191716h 0.861381v -0.575149h 0.861381v -0.191716h 0.861381v 0.958581h 0.861381v -0.958581h 0.861381v 0.766865h 0.861381v -0.575149h 0.861381v 0.575149h 0.861381v -0.383433h 0.861381v
 1.1503h 1.72276v 0.191716h 0.861381v -0.766865h 0.861381v -0.191716h 0.861381v 0.383433h 0.861381v -0.575149h 0.861381v -0.575149h 0.861381v 0.766865h 1.72276v 1.53373h 0.861381v -0.766865h 0.861381v -0.191716h 0.861381v -0.191716h 0.861381v
 0.383433h 0.861381v 0.575149h 0.861381v -0.766865h 0.861381v -0.383433h 0.861381v 0.766865h 0.861381v -0.958581h 0.861381v -0.575149h 0.861381v 0.575149h 0.861381v -0.383433h 0.861381v -0.191716h 0.861381v 0.766865h 0.861381v -0.191716h 0.861381v
 0.766865h 0.861381v -0.958581h 0.861381v 0.766865h 0.861381v 0.383433h 1.72276v -0.958581h 0.861381v 0.958581h 0.861381v -0.766865h 0.861381v 0.766865h 0.861381v -0.958581h 0.861381v 0.383433h 0.861381v 0.575149h 0.861381v -0.575149h 0.861381v
 0.958581h 0.861381v -0.383433h 0.861381v -1.91716h 0.861381v 1.53373h 0.861381v 0.766865h 0.861381v -0.958581h 0.861381v -0.958581h 0.861381v 1.53373h 1.72276v -0.575149h 0.861381v 0.575149h 0.861381v -0.191716h 1.72276v -0.766865h 0.861381v
 0.766865h 0.861381v -0.766865h 0.861381v 0.191716h 0.861381v -0.191716h 0.861381v 0.766865h 0.861381v 0.191716h 0.861381v -0.575149h 0.861381v -0.575149h 0.861381v 0.958581h 0.861381v -0.575149h 0.861381v -0.383433h 0.861381v 0.958581h 0.861381v
 1.1503h 0.861381v -1.1503h 0.861381v 0.766865h 0.861381v -1.53373h 0.861381v 1.1503h 0.861381v -1.34201h 0.861381v 1.91716h 0.861381v -2.10888h 0.861381v 0.383433h 0.861381v 0.766865h 0.861381v -1.53373h 0.861381v 2.10888h 0.861381v -0.575149h
 0.861381v -0.958581h 0.861381v -0.575149h 0.861381v 1.1503h 0.861381v 0.191716h 0.861381v 0.191716h 0.861381v -0.383433h 0.861381v -0.191716h 0.861381v -0.958581h 0.861381v 1.34201h 0.861381v -0.383433h 0.861381v 0.383433h 0.861381v -0.766865h
 0.861381v 1.34201h 1.72276v -0.766865h 0.861381v -0.191716h 1.72276v 0.191716h 1.72276v -0.958581h 0.861381v 0.383433h 0.861381v 0.191716h 0.861381v 0.383433h 0.861381v -0.383433h 0.861381v 0.766865h 0.861381v -0.575149h 0.861381v -0.383433h
 0.861381v 0.191716h 0.861381v 0.575149h 0.861381v -0.383433h 0.861381v 0.958581h 0.861381v -2.87574h 0.861381v 1.1503h 0.861381v 0.766865h 1.72276v 0.191716h 0.861381v 0.766865h 0.861381v -1.34201h 0.861381v 0.958581h 0.861381v -0.958581h 0.861381v
 0.383433h 0.861381v 0.191716h 2.58414v -0.958581h 0.861381v 0.191716h 0.861381v -0.191716h 0.861381v 0.191716h 0.861381v 0.575149h 0.861381v -0.191716h 0.861381v 0.766865h 0.861381v -0.575149h 0.861381v -0.575149h 0.861381v -0.575149h 0.861381v
 0.766865h 0.861381v 0.383433h 0.861381v -0.766865h 0.861381v 0.383433h 0.861381v 0.191716h 0.861381v 0.766865h 0.861381v -0.766865h 0.861381v -1.91716h 0.861381v 2.68403h 0.861381v -0.575149h 0.861381v -0.766865h 0.861381v -0.575149h 0.861381v
 0.766865h 0.861381v -0.191716h 0.861381v 0.575149h 0.861381v -0.958581h 0.861381v 1.53373h 0.861381v -0.575149h 0.861381v -1.1503h 0.861381v 1.1503h 0.861381v -0.575149h 0.861381v 1.34201h 0.861381v -2.49231h 0.861381v 0.383433h 0.861381v 0.575149h
 0.861381v -0.191716h 0.861381v 1.34201h 0.861381v 0.191716h 0.861381v -1.34201h 0.861381v 0.958581h 0.861381v -0.958581h 0.861381v 1.1503h 0.861381v -1.72545h 0.861381v 0.766865h 0.861381v 1.1503h 0.861381v -0.766865h 0.861381v -0.766865h 0.861381v
 0.383433h 0.861381v 0.575149h 0.861381v -0.383433h 0.861381v 1.1503h 1.72276v -0.958581h 0.861381v -0.575149h 0.861381v 1.34201h 0.861381v -0.766865h 0.861381v -0.958581h 0.861381v 1.34201h 0.861381v -0.575149h 0.861381v -0.191716h 0.861381v
 0.575149h 1.72276v -0.383433h 0.861381v 0.575149h 0.861381v -0.191716h 0.861381v -0.575149h 0.861381v 0.383433h 0.861381v -1.34201h 0.861381v 1.53373h 0.861381v -0.766865h 0.861381v -0.383433h 0.861381v 0.766865h 0.861381v 0.766865h 0.861381v
 -0.766865h 0.861381v 0.766865h 0.861381v -0.958581h 1.72276v 0.766865h 0.861381v 0.191716h 0.861381v -11.6947h 0.861381v -3.45089h 0.861381v -3.45089h 0.861381v 4.79291h 0.861381v 9.96925h 0.861381v 2.68403h 0.861381v -1.1503h 0.861381v 0.191716h
 0.861381v -0.575149h 0.861381v -1.1503h 0.861381v 1.53373h 0.861381v -1.53373h 0.861381v 1.34201h 0.861381v 0.958581h 0.861381v -0.958581h 0.861381v -2.3006h 0.861381v 2.3006h 0.861381v -2.3006h 0.861381v 1.72545h 0.861381v 0.575149h 0.861381v
 -1.72545h 0.861381v 0.958581h 0.861381v 1.1503h 0.861381v -0.958581h 0.861381v 0.958581h 0.861381v -0.191716h 1.72276v -0.575149h 0.861381v -0.191716h 0.861381v 1.1503h 0.861381v -2.87574h 0.861381v -0.958581h 0.861381v 1.1503h 0.861381v -0.191716h
 0.861381v 1.34201h 0.861381v 1.72545h 0.861381v -0.575149h 0.861381v 1.1503h 0.861381v -2.10888h 0.861381v 0.958581h 0.861381v 0.575149h 0.861381v -1.53373h 0.861381v 0.575149h 0.861381v -0.575149h 0.861381v 0.191716h 0.861381v 0.383433h 0.861381v
 -0.766865h 0.861381v 0.575149h 0.861381v -0.958581h 0.861381v 0.383433h 0.861381v 1.53373h 0.861381v 0.766865h 0.861381v -0.958581h 1.72276v 0.191716h 0.861381v -0.191716h 0.861381v -0.958581h 0.861381v 0.766865h 0.861381v -0.383433h 0.861381v
 -0.766865h 0.861381v 1.1503h 0.861381v -1.53373h 0.861381v 1.91716h 0.861381v 0.958581h 0.861381v -2.3006h 0.861381v -0.191716h 0.861381v 2.68403h 0.861381v 0.383433h 0.861381v -1.91716h 0.861381v -0.191716h 0.861381v 1.34201h 0.861381v -0.383433h
 0.861381v -0.575149h 0.861381v -0.766865h 0.861381v 0.383433h 0.861381v -2.3006h 0.861381v -24.5397h 0.861381v 3.45089h 0.861381v 2.68403h 0.861381v 14.5704h 0.861381v 5.17634h 0.861381v -1.53373h 0.861381v 1.34201h 1.72276v -0.958581h 0.861381v
 2.10888h 0.861381v -2.87574h 0.861381v 0.575149h 0.861381v 1.53373h 0.861381v 0.958581h 0.861381v -3.45089h 0.861381v 1.1503h 0.861381v -0.191716h 1.72276v 0.766865h 0.861381v 1.72545h 0.861381v -1.1503h 0.861381v -0.766865h 0.861381v -0.766865h
 0.861381v 1.91716h 0.861381v -0.766865h 2.58414v 0.766865h 0.861381v -1.72545h 0.861381v -1.34201h 0.861381v 0.191716h 0.861381v 0.383433h 0.861381v 0.383433h 0.861381v 1.34201h 0.861381v -1.1503h 0.861381v -2.68403h 0.861381v 0.575149h 0.861381v
 3.25918h 0.861381v -2.3006h 0.861381v 1.72545h 0.861381v -1.91716h 0.861381v 3.06746h 0.861381v -0.575149h 0.861381v 1.1503h 0.861381v 1.72545h 0.861381v 0.383433h 0.861381v 0.575149h 0.861381v -0.766865h 0.861381v -0.383433h 0.861381v -0.383433h
 0.861381v 0.958581h 0.861381v 0.575149h 1.72276v -0.191716h 0.861381v 0.766865h 0.861381v -0.191716h 0.861381v 0.958581h 0.861381v -0.575149h 0.861381v 0.575149h 1.72276v 0.191716h 0.861381v 0.191716h 0.861381v -0.191716h 0.861381v 0.191716h 4.3069v
 -0.191716h 0.861381v 0.191716h 4.3069v -1.53373h 0.861381v -34.8924h 0.861381v -47.1622h 0.861381v -2.10888h 0.861381v 58.6652h 0.861381v 27.032h 59.4353" fill="none" stroke="#0000ff" stroke-width="2"/>
<rect x="89.5079" y="207.095" width="166.677" height="35.0266" fill="white"/>
<path d="M89.5079,242.121h 166.677" fill="none" stroke="black"/>
<path d="M256.185,242.121v -35.0266" fill="none" stroke="black"/>
<path d="M256.185,207.095h -166.677" fill="none" stroke="black"/>
<path d="M89.5079,207.095v 35.0266" fill="none" stroke="black"/>
<text x="232.856" y="219.579" fill="black" font-size="13.3538" font-family="Times">
&#0176;
</text>
<text x="203.516" y="219.579" fill="black" font-size="13.3538" font-family="Helvetica">
 = 36
</text>
<text x="196.89" y="219.579" fill="black" font-size="13.3538" font-family="Times">
&#0966;
</text>
<text x="131.111" y="219.579" fill="black" font-size="13.3538" font-family="Helvetica">
detektor 1, 
</text>
<path d="M95.7583,215.851h 29.1685" fill="none" stroke="#ffcc00" stroke-width="2"/>
<text x="232.856" y="237.088" fill="black" font-size="13.3538" font-family="Times">
&#0176;
</text>
<text x="203.516" y="237.088" fill="black" font-size="13.3538" font-family="Helvetica">
 = 62
</text>
<text x="196.89" y="237.088" fill="black" font-size="13.3538" font-family="Times">
&#0966;
</text>
<text x="131.111" y="237.088" fill="black" font-size="13.3538" font-family="Helvetica">
detektor 2, 
</text>
<path d="M95.7583,233.365h 29.1685" fill="none" stroke="#0000ff" stroke-width="2"/></svg>
