<?xml version="1.0" standalone="no"?>
<svg width="567.429" height="365.36" viewBox="0 0 567.429 365.36" xmlns="http://www.w3.org/2000/svg">
<title>
NaI_doppler_effect.svg
</title>
<desc>
Creator: ROOT Version 5.34/36
CreationDate: Fri Jan 25 14:14:20 2019</desc>
<defs>
</defs>
<rect x="0.5" y="0" width="566.929" height="364.86" fill="white"/>
<rect x="6.16929" y="3.6486" width="555.591" height="175.133" fill="white"/>
<rect x="61.7283" y="21.1619" width="444.472" height="140.106" fill="white"/>
<rect x="61.7283" y="21.1619" width="444.472" height="140.106" fill="none" stroke="black"/>
<path d="M61.7283,158.53h 0.861381v -0.182537h 0.861381v 0.912685h 0.861381v 0.365074h 0.861381v -0.912685h 0.861381v 0.730148h 0.861381v -0.547611h 0.861381v -0.730148h 0.861381v 1.09522h 0.861381v -0.182537h 1.72276v -0.547611h 0.861381v 0.182537h
 0.861381v 1.09522h 0.861381v -1.09522h 0.861381v 0.365074h 0.861381v -0.365074h 0.861381v -0.912685h 0.861381v -0.182537h 0.861381v 1.09522h 0.861381v -0.365074h 0.861381v 0.547611h 0.861381v -0.730148h 0.861381v -0.912685h 0.861381v 2.19044h
 0.861381v -0.547611h 0.861381v 0.365074h 0.861381v -1.09522h 0.861381v 0.730148h 0.861381v 0.182537h 0.861381v -0.912685h 0.861381v -0.182537h 0.861381v 1.09522h 0.861381v 0.730148h 0.861381v -1.64283h 0.861381v 0.365074h 0.861381v -0.365074h
 0.861381v -0.730148h 0.861381v 1.27776h 1.72276v -0.912685h 0.861381v 0.730148h 0.861381v -0.365074h 0.861381v -0.912685h 0.861381v 1.4603h 0.861381v -1.64283h 0.861381v 0.547611h 0.861381v 1.27776h 0.861381v -0.182537h 0.861381v 0.182537h 0.861381v
 0.730148h 0.861381v -0.547611h 1.72276v 0.182537h 0.861381v 0.365074h 0.861381v -1.09522h 0.861381v 0.365074h 0.861381v 0.365074h 0.861381v -1.09522h 0.861381v 0.547611h 0.861381v 0.730148h 0.861381v -0.730148h 1.72276v 1.27776h 0.861381v -0.182537h
 0.861381v -1.4603h 0.861381v 1.27776h 0.861381v -0.547611h 0.861381v 0.547611h 0.861381v -0.730148h 0.861381v 0.912685h 0.861381v -0.365074h 0.861381v 0.365074h 0.861381v -0.730148h 0.861381v 0.365074h 0.861381v -13.6903h 0.861381v 12.7776h
 0.861381v 1.09522h 0.861381v 0.547611h 1.72276v -0.730148h 0.861381v 0.182537h 1.72276v -0.365074h 0.861381v -0.547611h 0.861381v 1.82537h 0.861381v -0.912685h 0.861381v 0.182537h 0.861381v -1.64283h 0.861381v 1.64283h 0.861381v -0.182537h 0.861381v
 0.547611h 0.861381v -1.09522h 0.861381v 1.4603h 0.861381v -2.00791h 0.861381v 1.09522h 0.861381v -0.547611h 1.72276v 0.547611h 0.861381v -0.182537h 0.861381v 0.182537h 1.72276v -0.182537h 0.861381v 0.182537h 0.861381v -0.547611h 0.861381v 1.27776h
 0.861381v -0.730148h 0.861381v -0.365074h 0.861381v 0.912685h 0.861381v 0.182537h 0.861381v -1.09522h 0.861381v 1.09522h 0.861381v -0.365074h 0.861381v -0.365074h 0.861381v 0.182537h 0.861381v -0.365074h 0.861381v 0.730148h 1.72276v -0.182537h
 2.58414v -0.182537h 0.861381v -1.09522h 0.861381v 0.182537h 0.861381v 0.912685h 0.861381v 0.365074h 1.72276v -0.912685h 0.861381v 1.4603h 0.861381v -1.82537h 0.861381v -0.182537h 0.861381v 0.912685h 0.861381v -0.547611h 0.861381v 0.730148h 0.861381v
 -0.182537h 1.72276v 0.730148h 0.861381v -0.365074h 0.861381v -0.730148h 0.861381v 1.09522h 0.861381v -0.912685h 0.861381v 1.09522h 0.861381v -0.547611h 0.861381v -0.182537h 0.861381v 0.365074h 0.861381v 0.182537h 0.861381v 0.182537h 0.861381v
 -1.27776h 0.861381v 1.4603h 0.861381v -0.912685h 0.861381v -0.365074h 0.861381v -0.182537h 0.861381v -1.09522h 0.861381v 1.09522h 0.861381v 0.547611h 0.861381v -0.547611h 0.861381v 0.365074h 0.861381v -0.730148h 0.861381v 1.09522h 1.72276v
 -0.182537h 0.861381v -0.547611h 0.861381v 0.912685h 1.72276v -0.547611h 0.861381v 0.182537h 0.861381v 0.182537h 0.861381v 0.182537h 0.861381v -0.547611h 0.861381v -0.182537h 0.861381v 1.27776h 0.861381v -1.4603h 0.861381v -0.182537h 0.861381v
 0.547611h 0.861381v -1.09522h 0.861381v 0.730148h 0.861381v 0.547611h 0.861381v -0.912685h 0.861381v 0.365074h 0.861381v 0.547611h 0.861381v 0.912685h 0.861381v -0.365074h 0.861381v -1.4603h 0.861381v 0.730148h 0.861381v 0.365074h 0.861381v
 0.730148h 0.861381v -0.182537h 0.861381v -1.4603h 0.861381v 0.547611h 0.861381v -0.547611h 0.861381v 0.730148h 0.861381v 0.365074h 0.861381v -1.4603h 0.861381v 0.912685h 0.861381v -1.27776h 0.861381v 1.4603h 0.861381v -0.547611h 0.861381v 1.09522h
 0.861381v -0.547611h 0.861381v 0.547611h 0.861381v -0.182537h 0.861381v -0.182537h 0.861381v -0.547611h 0.861381v -0.912685h 0.861381v 1.27776h 0.861381v 0.547611h 0.861381v -0.365074h 0.861381v -1.27776h 1.72276v 1.27776h 0.861381v -0.547611h
 0.861381v 0.547611h 0.861381v -0.730148h 0.861381v -0.547611h 0.861381v 0.912685h 0.861381v 0.547611h 0.861381v -0.547611h 0.861381v -0.182537h 0.861381v 0.365074h 1.72276v 0.730148h 0.861381v -1.4603h 0.861381v 0.182537h 0.861381v 0.547611h
 0.861381v -0.182537h 0.861381v 0.182537h 0.861381v 0.547611h 0.861381v -0.730148h 0.861381v 0.182537h 0.861381v -0.547611h 0.861381v 0.365074h 0.861381v -0.730148h 0.861381v 1.09522h 0.861381v -0.730148h 0.861381v 0.730148h 0.861381v -0.182537h
 0.861381v 0.182537h 0.861381v 0.365074h 0.861381v -0.912685h 0.861381v 0.365074h 0.861381v -0.730148h 0.861381v -0.547611h 1.72276v 1.27776h 2.58414v -2.00791h 0.861381v 2.55552h 0.861381v -0.365074h 0.861381v -0.365074h 0.861381v 0.730148h
 0.861381v -1.09522h 0.861381v 0.912685h 0.861381v 0.365074h 1.72276v -1.09522h 0.861381v 0.365074h 0.861381v -1.09522h 0.861381v 0.912685h 0.861381v -0.182537h 0.861381v -0.182537h 0.861381v -0.182537h 0.861381v 1.27776h 0.861381v -1.09522h
 0.861381v -0.182537h 0.861381v 0.912685h 0.861381v -0.547611h 0.861381v -0.912685h 0.861381v 0.730148h 0.861381v -0.182537h 0.861381v -0.730148h 0.861381v 0.730148h 0.861381v 1.27776h 0.861381v -0.912685h 0.861381v 0.365074h 0.861381v -0.730148h
 0.861381v 0.730148h 0.861381v -0.547611h 0.861381v -0.182537h 0.861381v -0.912685h 0.861381v 1.4603h 1.72276v -0.730148h 0.861381v -0.365074h 0.861381v 0.365074h 0.861381v 0.182537h 0.861381v 0.365074h 0.861381v -1.09522h 0.861381v 1.4603h 0.861381v
 -1.09522h 0.861381v 0.912685h 0.861381v -0.365074h 0.861381v 0.182537h 0.861381v -0.730148h 0.861381v 0.912685h 0.861381v -0.730148h 0.861381v 0.182537h 1.72276v 0.365074h 0.861381v 0.182537h 0.861381v -58.9594h 0.861381v 56.2214h 0.861381v 1.82537h
 0.861381v -0.730148h 0.861381v 1.09522h 0.861381v -2.19044h 0.861381v 0.365074h 0.861381v 1.09522h 0.861381v -0.547611h 0.861381v 0.365074h 0.861381v -0.730148h 0.861381v 0.547611h 0.861381v 0.365074h 1.72276v -0.182537h 0.861381v 0.912685h
 0.861381v -1.09522h 0.861381v -1.09522h 0.861381v 0.730148h 0.861381v 0.182537h 0.861381v -1.27776h 0.861381v 1.4603h 0.861381v 0.912685h 0.861381v -0.365074h 0.861381v 0.912685h 0.861381v -1.4603h 0.861381v 0.182537h 1.72276v -1.27776h 0.861381v
 0.182537h 0.861381v 0.912685h 0.861381v 0.912685h 0.861381v -1.82537h 0.861381v -0.547611h 0.861381v 0.547611h 0.861381v 2.19044h 0.861381v -1.27776h 0.861381v -0.547611h 0.861381v -0.365074h 1.72276v 1.09522h 0.861381v -0.912685h 0.861381v
 0.365074h 0.861381v -0.182537h 1.72276v 1.4603h 0.861381v -0.730148h 0.861381v -1.82537h 0.861381v 0.547611h 0.861381v 0.547611h 0.861381v 0.912685h 0.861381v 0.912685h 0.861381v 0.182537h 0.861381v -1.4603h 0.861381v 0.365074h 0.861381v -0.365074h
 0.861381v -0.365074h 0.861381v 0.547611h 0.861381v -0.182537h 0.861381v 1.09522h 0.861381v -1.09522h 0.861381v -0.912685h 0.861381v 0.730148h 1.72276v 0.730148h 0.861381v 1.09522h 0.861381v -1.09522h 0.861381v -0.912685h 0.861381v 1.09522h 0.861381v
 0.547611h 0.861381v -0.182537h 0.861381v -0.547611h 0.861381v -1.27776h 0.861381v 1.27776h 0.861381v 0.730148h 0.861381v -53.6659h 0.861381v 54.0309h 0.861381v -0.730148h 0.861381v -0.730148h 0.861381v -0.182537h 0.861381v 0.365074h 0.861381v
 -1.09522h 0.861381v 1.27776h 0.861381v -1.27776h 0.861381v 0.730148h 0.861381v 0.547611h 0.861381v -1.64283h 0.861381v 1.09522h 1.72276v 0.365074h 0.861381v -3.10313h 0.861381v 3.83328h 0.861381v -1.64283h 0.861381v -0.365074h 0.861381v 0.547611h
 0.861381v 0.730148h 0.861381v -1.27776h 0.861381v 1.09522h 0.861381v -0.912685h 0.861381v 1.27776h 0.861381v -2.92059h 1.72276v 0.912685h 0.861381v 0.365074h 0.861381v -1.82537h 0.861381v 2.19044h 0.861381v -0.912685h 0.861381v 1.09522h 0.861381v
 -2.55552h 0.861381v 3.4682h 0.861381v -1.27776h 0.861381v -1.09522h 0.861381v 0.730148h 2.58414v 0.730148h 0.861381v 0.912685h 0.861381v 1.4603h 0.861381v -0.912685h 0.861381v 0.730148h 0.861381v -0.365074h 0.861381v 0.730148h 0.861381v 0.547611h
 0.861381v 0.365074h 0.861381v -0.547611h 2.58414v -0.182537h 0.861381v 0.365074h 1.72276v 0.182537h 0.861381v 0.182537h 0.861381v 0.182537h 0.861381v -0.182537h 0.861381v 0.365074h 1.72276v -0.182537h 0.861381v 0.182537h 11.1979v -2.55552h 0.861381v
 -130.879h 0.861381v 133.435h 55.1284" fill="none" stroke="black" stroke-width="2"/>
<path d="M61.7283,161.268h 444.472" fill="none" stroke="black"/>
<text x="480.355" y="177.461" fill="black" font-size="8.53362" font-family="Helvetica">
E [keV]
</text>
<path d="M61.7283,157.065v 4.20319" fill="none" stroke="black"/>
<path d="M74.4276,159.167v 2.10159" fill="none" stroke="black"/>
<path d="M87.1268,159.167v 2.10159" fill="none" stroke="black"/>
<path d="M99.826,159.167v 2.10159" fill="none" stroke="black"/>
<path d="M112.525,159.167v 2.10159" fill="none" stroke="black"/>
<path d="M125.224,157.065v 4.20319" fill="none" stroke="black"/>
<path d="M137.924,159.167v 2.10159" fill="none" stroke="black"/>
<path d="M150.623,159.167v 2.10159" fill="none" stroke="black"/>
<path d="M163.322,159.167v 2.10159" fill="none" stroke="black"/>
<path d="M176.021,159.167v 2.10159" fill="none" stroke="black"/>
<path d="M188.72,157.065v 4.20319" fill="none" stroke="black"/>
<path d="M201.42,159.167v 2.10159" fill="none" stroke="black"/>
<path d="M214.119,159.167v 2.10159" fill="none" stroke="black"/>
<path d="M226.818,159.167v 2.10159" fill="none" stroke="black"/>
<path d="M239.517,159.167v 2.10159" fill="none" stroke="black"/>
<path d="M252.217,157.065v 4.20319" fill="none" stroke="black"/>
<path d="M264.916,159.167v 2.10159" fill="none" stroke="black"/>
<path d="M277.615,159.167v 2.10159" fill="none" stroke="black"/>
<path d="M290.314,159.167v 2.10159" fill="none" stroke="black"/>
<path d="M303.013,159.167v 2.10159" fill="none" stroke="black"/>
<path d="M315.713,157.065v 4.20319" fill="none" stroke="black"/>
<path d="M328.412,159.167v 2.10159" fill="none" stroke="black"/>
<path d="M341.111,159.167v 2.10159" fill="none" stroke="black"/>
<path d="M353.81,159.167v 2.10159" fill="none" stroke="black"/>
<path d="M366.509,159.167v 2.10159" fill="none" stroke="black"/>
<path d="M379.209,157.065v 4.20319" fill="none" stroke="black"/>
<path d="M391.908,159.167v 2.10159" fill="none" stroke="black"/>
<path d="M404.607,159.167v 2.10159" fill="none" stroke="black"/>
<path d="M417.306,159.167v 2.10159" fill="none" stroke="black"/>
<path d="M430.006,159.167v 2.10159" fill="none" stroke="black"/>
<path d="M442.705,157.065v 4.20319" fill="none" stroke="black"/>
<path d="M455.404,159.167v 2.10159" fill="none" stroke="black"/>
<path d="M468.103,159.167v 2.10159" fill="none" stroke="black"/>
<path d="M480.802,159.167v 2.10159" fill="none" stroke="black"/>
<path d="M493.502,159.167v 2.10159" fill="none" stroke="black"/>
<path d="M506.201,157.065v 4.20319" fill="none" stroke="black"/>
<text x="59.1805" y="169.416" fill="black" font-size="9.33698" font-family="Helvetica">
0
</text>
<text x="117.388" y="169.416" fill="black" font-size="9.33698" font-family="Helvetica">
500
</text>
<text x="178.434" y="169.416" fill="black" font-size="9.33698" font-family="Helvetica">
1000
</text>
<text x="241.847" y="169.416" fill="black" font-size="9.33698" font-family="Helvetica">
1500
</text>
<text x="305.733" y="169.416" fill="black" font-size="9.33698" font-family="Helvetica">
2000
</text>
<text x="369.146" y="169.416" fill="black" font-size="9.33698" font-family="Helvetica">
2500
</text>
<text x="432.559" y="169.416" fill="black" font-size="9.33698" font-family="Helvetica">
3000
</text>
<text x="495.971" y="169.416" fill="black" font-size="9.33698" font-family="Helvetica">
3500
</text>
<path d="M61.7283,161.268v -140.106" fill="none" stroke="black"/>
<path d="M75.0625,161.268h -13.3342" fill="none" stroke="black"/>
<path d="M68.3954,157.617h -6.66709" fill="none" stroke="black"/>
<path d="M68.3954,153.967h -6.66709" fill="none" stroke="black"/>
<path d="M68.3954,150.316h -6.66709" fill="none" stroke="black"/>
<path d="M68.3954,146.665h -6.66709" fill="none" stroke="black"/>
<path d="M75.0625,143.014h -13.3342" fill="none" stroke="black"/>
<path d="M68.3954,139.364h -6.66709" fill="none" stroke="black"/>
<path d="M68.3954,135.713h -6.66709" fill="none" stroke="black"/>
<path d="M68.3954,132.062h -6.66709" fill="none" stroke="black"/>
<path d="M68.3954,128.411h -6.66709" fill="none" stroke="black"/>
<path d="M75.0625,124.761h -13.3342" fill="none" stroke="black"/>
<path d="M68.3954,121.11h -6.66709" fill="none" stroke="black"/>
<path d="M68.3954,117.459h -6.66709" fill="none" stroke="black"/>
<path d="M68.3954,113.809h -6.66709" fill="none" stroke="black"/>
<path d="M68.3954,110.158h -6.66709" fill="none" stroke="black"/>
<path d="M75.0625,106.507h -13.3342" fill="none" stroke="black"/>
<path d="M68.3954,102.856h -6.66709" fill="none" stroke="black"/>
<path d="M68.3954,99.2056h -6.66709" fill="none" stroke="black"/>
<path d="M68.3954,95.5548h -6.66709" fill="none" stroke="black"/>
<path d="M68.3954,91.9041h -6.66709" fill="none" stroke="black"/>
<path d="M75.0625,88.2534h -13.3342" fill="none" stroke="black"/>
<path d="M68.3954,84.6026h -6.66709" fill="none" stroke="black"/>
<path d="M68.3954,80.9519h -6.66709" fill="none" stroke="black"/>
<path d="M68.3954,77.3011h -6.66709" fill="none" stroke="black"/>
<path d="M68.3954,73.6504h -6.66709" fill="none" stroke="black"/>
<path d="M75.0625,69.9997h -13.3342" fill="none" stroke="black"/>
<path d="M68.3954,66.3489h -6.66709" fill="none" stroke="black"/>
<path d="M68.3954,62.6982h -6.66709" fill="none" stroke="black"/>
<path d="M68.3954,59.0474h -6.66709" fill="none" stroke="black"/>
<path d="M68.3954,55.3967h -6.66709" fill="none" stroke="black"/>
<path d="M75.0625,51.746h -13.3342" fill="none" stroke="black"/>
<path d="M68.3954,48.0952h -6.66709" fill="none" stroke="black"/>
<path d="M68.3954,44.4445h -6.66709" fill="none" stroke="black"/>
<path d="M68.3954,40.7937h -6.66709" fill="none" stroke="black"/>
<path d="M68.3954,37.143h -6.66709" fill="none" stroke="black"/>
<path d="M75.0625,33.4923h -13.3342" fill="none" stroke="black"/>
<path d="M75.0625,33.4923h -13.3342" fill="none" stroke="black"/>
<path d="M68.3954,29.8415h -6.66709" fill="none" stroke="black"/>
<path d="M68.3954,26.1908h -6.66709" fill="none" stroke="black"/>
<path d="M68.3954,22.54h -6.66709" fill="none" stroke="black"/>
<text x="53.5017" y="164.684" fill="black" font-size="10.1403" font-family="Helvetica">
0
</text>
<text x="42.6174" y="146.701" fill="black" font-size="10.1403" font-family="Helvetica">
100
</text>
<text x="42.6174" y="128.245" fill="black" font-size="10.1403" font-family="Helvetica">
200
</text>
<text x="42.6174" y="110.263" fill="black" font-size="10.1403" font-family="Helvetica">
300
</text>
<text x="42.6174" y="91.8066" fill="black" font-size="10.1403" font-family="Helvetica">
400
</text>
<text x="42.6174" y="73.3506" fill="black" font-size="10.1403" font-family="Helvetica">
500
</text>
<text x="42.6174" y="55.3679" fill="black" font-size="10.1403" font-family="Helvetica">
600
</text>
<text x="42.6174" y="36.9119" fill="black" font-size="10.1403" font-family="Helvetica">
700
</text>
<text x="256.044" y="17.9827" fill="black" font-size="15.1137" font-family="Helvetica">
 z detektorow NaI
</text>
<text x="248.946" y="17.9827" fill="black" font-size="15.1137" font-family="Times">
&#0947;
</text>
<text x="198.31" y="17.9827" fill="black" font-size="15.1137" font-family="Helvetica">
Widmo 
</text>
<path d="M61.7283,158.165h 0.861381v 0.182537h 0.861381v 0.730148h 0.861381v 0.912685h 0.861381v -2.00791h 0.861381v 0.730148h 0.861381v -2.00791h 0.861381v 2.19044h 0.861381v 0.182537h 0.861381v 0.730148h 0.861381v -2.00791h 0.861381v 0.912685h
 1.72276v -0.547611h 0.861381v 1.09522h 0.861381v -0.912685h 0.861381v 1.09522h 0.861381v -0.182537h 1.72276v -0.547611h 0.861381v 0.182537h 0.861381v 0.547611h 0.861381v -0.912685h 0.861381v -0.365074h 0.861381v 1.64283h 0.861381v -0.182537h
 0.861381v -0.365074h 1.72276v -1.64283h 0.861381v 1.64283h 0.861381v -0.182537h 0.861381v -0.730148h 0.861381v 1.09522h 0.861381v -1.64283h 0.861381v -0.730148h 0.861381v 1.27776h 0.861381v -1.4603h 0.861381v 1.4603h 0.861381v 0.365074h 0.861381v
 -0.547611h 0.861381v 0.730148h 0.861381v -0.730148h 0.861381v 0.365074h 0.861381v -1.27776h 0.861381v 0.365074h 0.861381v 0.365074h 0.861381v -0.365074h 0.861381v 1.27776h 0.861381v 0.730148h 0.861381v -0.365074h 0.861381v -0.912685h 0.861381v
 0.365074h 1.72276v 0.365074h 0.861381v -0.182537h 0.861381v -0.730148h 0.861381v 0.730148h 1.72276v -0.547611h 0.861381v 0.547611h 0.861381v -1.27776h 0.861381v 2.37298h 0.861381v -0.912685h 1.72276v -0.547611h 0.861381v 0.730148h 0.861381v
 0.365074h 0.861381v 0.182537h 0.861381v 0.182537h 0.861381v -0.912685h 0.861381v -0.547611h 0.861381v 1.64283h 0.861381v -0.912685h 1.72276v 0.182537h 0.861381v -11.1348h 0.861381v 10.7697h 0.861381v 0.182537h 0.861381v 1.09522h 0.861381v -1.09522h
 0.861381v 0.365074h 0.861381v -0.182537h 0.861381v -0.730148h 0.861381v 1.09522h 0.861381v 0.547611h 0.861381v -0.547611h 0.861381v 0.547611h 1.72276v -0.182537h 0.861381v -0.547611h 0.861381v -0.365074h 0.861381v -0.182537h 0.861381v 0.547611h
 1.72276v -0.365074h 0.861381v 0.182537h 0.861381v 0.365074h 0.861381v -1.4603h 0.861381v 1.64283h 0.861381v -0.912685h 0.861381v 1.82537h 0.861381v -1.27776h 0.861381v -0.547611h 0.861381v 1.09522h 0.861381v -0.182537h 0.861381v -0.182537h 0.861381v
 0.365074h 1.72276v -0.182537h 0.861381v -0.912685h 0.861381v 0.182537h 0.861381v 0.182537h 1.72276v 0.912685h 0.861381v -1.64283h 0.861381v 0.547611h 0.861381v -0.182537h 0.861381v -0.365074h 0.861381v 0.365074h 0.861381v 0.547611h 0.861381v
 -0.912685h 0.861381v -0.182537h 0.861381v 0.182537h 0.861381v 0.730148h 1.72276v 0.365074h 1.72276v -0.547611h 0.861381v 1.27776h 0.861381v -0.730148h 0.861381v -0.182537h 0.861381v 0.182537h 0.861381v -0.182537h 0.861381v 0.365074h 0.861381v
 -0.182537h 0.861381v -0.730148h 0.861381v 1.27776h 0.861381v -0.547611h 0.861381v 0.365074h 0.861381v -1.09522h 0.861381v 0.730148h 0.861381v -0.182537h 0.861381v -0.182537h 0.861381v 0.547611h 0.861381v 0.365074h 1.72276v -0.912685h 0.861381v
 0.182537h 0.861381v 0.182537h 1.72276v -0.730148h 0.861381v 0.730148h 0.861381v 0.730148h 0.861381v -2.19044h 0.861381v 2.00791h 1.72276v -0.547611h 0.861381v -0.730148h 0.861381v 1.09522h 0.861381v -0.365074h 0.861381v -0.547611h 0.861381v
 0.547611h 1.72276v -1.82537h 0.861381v 2.00791h 0.861381v -0.365074h 0.861381v 0.365074h 0.861381v -0.547611h 0.861381v 0.730148h 0.861381v 0.182537h 0.861381v -0.547611h 0.861381v -0.547611h 0.861381v 0.182537h 0.861381v -0.547611h 0.861381v
 0.365074h 0.861381v 0.547611h 0.861381v -0.182537h 0.861381v -0.182537h 0.861381v 0.365074h 0.861381v 0.182537h 0.861381v 0.182537h 0.861381v 0.182537h 0.861381v -0.730148h 0.861381v -0.182537h 0.861381v -0.547611h 0.861381v 0.182537h 0.861381v
 1.09522h 0.861381v -0.365074h 0.861381v 0.182537h 1.72276v -0.365074h 0.861381v -0.182537h 0.861381v -0.182537h 0.861381v 0.730148h 1.72276v 0.182537h 0.861381v -0.365074h 0.861381v 0.182537h 0.861381v 0.365074h 0.861381v -0.730148h 1.72276v
 0.365074h 0.861381v -1.64283h 0.861381v 1.4603h 0.861381v -0.182537h 0.861381v -0.182537h 0.861381v 0.182537h 0.861381v 0.182537h 0.861381v -0.182537h 0.861381v -1.09522h 0.861381v 0.912685h 0.861381v 0.730148h 0.861381v -1.4603h 0.861381v
 -0.182537h 0.861381v 0.547611h 0.861381v 0.547611h 0.861381v -0.912685h 0.861381v -0.182537h 0.861381v 1.27776h 1.72276v 0.182537h 0.861381v -1.09522h 0.861381v 0.547611h 0.861381v 0.365074h 1.72276v -0.730148h 1.72276v 0.730148h 0.861381v
 -0.182537h 1.72276v -1.64283h 0.861381v 0.182537h 0.861381v 0.730148h 0.861381v 0.547611h 0.861381v 0.730148h 0.861381v -0.730148h 0.861381v -0.730148h 0.861381v -0.365074h 1.72276v 0.182537h 1.72276v 1.4603h 0.861381v -0.547611h 0.861381v
 -0.912685h 0.861381v 0.730148h 0.861381v 1.27776h 0.861381v -0.182537h 0.861381v -1.64283h 0.861381v 0.182537h 0.861381v 0.547611h 0.861381v 0.182537h 0.861381v -1.09522h 0.861381v -0.182537h 0.861381v 1.09522h 1.72276v -1.09522h 0.861381v 0.912685h
 0.861381v 0.182537h 0.861381v 0.182537h 0.861381v 0.912685h 0.861381v -1.27776h 0.861381v -0.730148h 0.861381v 0.182537h 1.72276v 1.27776h 0.861381v -0.912685h 0.861381v 0.730148h 2.58414v -0.182537h 0.861381v -0.365074h 0.861381v -0.182537h
 0.861381v 0.730148h 2.58414v -0.547611h 1.72276v 0.182537h 0.861381v -0.182537h 0.861381v 0.182537h 0.861381v 0.730148h 0.861381v -0.547611h 0.861381v -53.1183h 0.861381v 45.0866h 0.861381v 6.38879h 0.861381v -0.365074h 0.861381v 0.547611h 0.861381v
 0.730148h 0.861381v 0.182537h 1.72276v -0.547611h 0.861381v -1.27776h 0.861381v 1.4603h 0.861381v -1.27776h 0.861381v -1.09522h 0.861381v 1.4603h 0.861381v 0.912685h 0.861381v -1.27776h 0.861381v 1.09522h 0.861381v -3.28567h 0.861381v 3.10313h
 1.72276v -0.730148h 0.861381v 0.730148h 0.861381v -1.09522h 1.72276v 1.09522h 0.861381v -0.182537h 0.861381v -2.37298h 0.861381v 2.73805h 0.861381v -0.547611h 0.861381v -0.182537h 0.861381v -0.182537h 0.861381v 1.09522h 0.861381v -0.912685h 1.72276v
 0.912685h 0.861381v -0.547611h 0.861381v -0.730148h 0.861381v 1.27776h 0.861381v -0.365074h 0.861381v 0.365074h 0.861381v -1.4603h 0.861381v -0.182537h 0.861381v 0.547611h 0.861381v -0.182537h 0.861381v 0.912685h 0.861381v -0.547611h 0.861381v
 0.365074h 0.861381v -1.4603h 0.861381v 2.73805h 0.861381v -0.730148h 0.861381v 1.27776h 0.861381v -1.09522h 0.861381v -0.365074h 1.72276v -0.912685h 0.861381v 0.730148h 0.861381v 0.547611h 1.72276v -1.82537h 0.861381v 2.00791h 0.861381v -0.730148h
 0.861381v -0.365074h 0.861381v 0.912685h 0.861381v -0.365074h 0.861381v -1.27776h 0.861381v 1.82537h 0.861381v -0.730148h 0.861381v -0.912685h 0.861381v 1.09522h 0.861381v 0.730148h 0.861381v -0.365074h 0.861381v -0.912685h 0.861381v 0.912685h
 0.861381v -0.182537h 0.861381v -1.09522h 0.861381v 0.912685h 0.861381v -52.9357h 0.861381v 52.5707h 0.861381v -1.09522h 0.861381v 0.912685h 0.861381v -1.27776h 0.861381v 1.27776h 0.861381v -1.82537h 0.861381v 2.19044h 0.861381v -2.55552h 0.861381v
 2.37298h 0.861381v 0.182537h 0.861381v -0.365074h 0.861381v -2.37298h 0.861381v 1.82537h 0.861381v -0.730148h 0.861381v 0.365074h 0.861381v 0.730148h 0.861381v -0.182537h 0.861381v -0.365074h 1.72276v -0.365074h 1.72276v 0.182537h 0.861381v
 -0.365074h 0.861381v -0.547611h 0.861381v 0.730148h 0.861381v -0.182537h 0.861381v -0.182537h 0.861381v 0.730148h 0.861381v -1.4603h 0.861381v 0.182537h 0.861381v -0.182537h 0.861381v -0.547611h 0.861381v -0.182537h 0.861381v 1.09522h 0.861381v
 1.4603h 0.861381v -1.64283h 0.861381v -0.365074h 0.861381v 0.547611h 0.861381v -0.365074h 1.72276v 2.55552h 0.861381v 0.547611h 0.861381v 0.730148h 0.861381v -0.365074h 0.861381v -0.730148h 0.861381v 1.27776h 0.861381v -0.365074h 0.861381v 0.547611h
 0.861381v 0.365074h 0.861381v 0.365074h 0.861381v -0.182537h 0.861381v 0.365074h 0.861381v -0.365074h 1.72276v 0.730148h 1.72276v -0.365074h 0.861381v 0.182537h 0.861381v 0.182537h 0.861381v -0.365074h 0.861381v 0.182537h 0.861381v 0.182537h
 11.1979v -140.106" fill="none" stroke="#ff0000" stroke-width="2"/>
<path d="M435.568,21.1619v 140.106" fill="none" stroke="#ff0000" stroke-width="2"/>
<path d="M435.568,161.268h 70.6332" fill="none" stroke="#ff0000" stroke-width="2"/>
<rect x="89.5079" y="24.6645" width="166.677" height="35.0266" fill="white"/>
<path d="M89.5079,59.6911h 166.677" fill="none" stroke="black"/>
<path d="M256.185,59.6911v -35.0266" fill="none" stroke="black"/>
<path d="M256.185,24.6645h -166.677" fill="none" stroke="black"/>
<path d="M89.5079,24.6645v 35.0266" fill="none" stroke="black"/>
<text x="225.757" y="36.9119" fill="black" font-size="13.3538" font-family="Times">
&#0176;
</text>
<text x="203.516" y="36.9119" fill="black" font-size="13.3538" font-family="Helvetica">
 = 0
</text>
<text x="196.89" y="36.9119" fill="black" font-size="13.3538" font-family="Times">
&#0966;
</text>
<text x="131.111" y="36.9119" fill="black" font-size="13.3538" font-family="Helvetica">
detektor 0, 
</text>
<path d="M95.7583,33.4212h 29.1685" fill="none" stroke="black" stroke-width="2"/>
<text x="240.427" y="54.4214" fill="black" font-size="13.3538" font-family="Times">
&#0176;
</text>
<text x="203.516" y="54.4214" fill="black" font-size="13.3538" font-family="Helvetica">
 = 180
</text>
<text x="196.89" y="54.4214" fill="black" font-size="13.3538" font-family="Times">
&#0966;
</text>
<text x="131.111" y="54.4214" fill="black" font-size="13.3538" font-family="Helvetica">
detektor 5, 
</text>
<path d="M95.7583,50.9345h 29.1685" fill="none" stroke="#ff0000" stroke-width="2"/>
<text x="256.044" y="17.9827" fill="black" font-size="15.1137" font-family="Helvetica">
 z detektorow NaI
</text>
<text x="248.946" y="17.9827" fill="black" font-size="15.1137" font-family="Times">
&#0947;
</text>
<text x="198.31" y="17.9827" fill="black" font-size="15.1137" font-family="Helvetica">
Widmo 
</text>
<rect x="6.16929" y="186.079" width="555.591" height="175.133" fill="white"/>
<rect x="61.7283" y="203.592" width="444.472" height="140.106" fill="white"/>
<rect x="61.7283" y="203.592" width="444.472" height="140.106" fill="none" stroke="black"/>
<path d="M61.7283,340.171h 0.861381v 0.293909h 0.861381v -1.46954h 1.72276v 0.293909h 0.861381v 0.587817h 0.861381v -1.46954h 0.861381v -0.881726h 0.861381v 2.93909h 0.861381v -2.05736h 0.861381v 2.05736h 0.861381v -0.881726h 0.861381v -1.76345h
 0.861381v 1.76345h 0.861381v -0.293909h 0.861381v 0.587817h 0.861381v -1.76345h 0.861381v 1.17563h 0.861381v 0.587817h 0.861381v 0.293909h 0.861381v 1.17563h 0.861381v -1.76345h 0.861381v -0.587817h 0.861381v 1.17563h 0.861381v -0.881726h 0.861381v
 1.46954h 0.861381v -0.881726h 0.861381v 0.293909h 0.861381v -0.587817h 0.861381v -1.17563h 0.861381v 2.64518h 0.861381v -4.11472h 0.861381v 4.40863h 0.861381v -1.17563h 0.861381v -2.05736h 0.861381v 2.35127h 0.861381v -2.64518h 0.861381v 0.881726h
 0.861381v 2.05736h 0.861381v -1.46954h 0.861381v -0.293909h 0.861381v 0.293909h 0.861381v 1.17563h 0.861381v -0.881726h 0.861381v -3.5269h 0.861381v 3.233h 0.861381v 1.17563h 0.861381v -0.293909h 0.861381v -0.587817h 0.861381v -0.293909h 1.72276v
 -0.293909h 0.861381v -0.587817h 0.861381v 1.46954h 0.861381v 0.881726h 0.861381v -1.17563h 0.861381v 0.881726h 0.861381v -0.881726h 1.72276v 0.881726h 1.72276v -1.17563h 0.861381v 1.17563h 0.861381v -0.293909h 0.861381v -0.587817h 0.861381v
 0.587817h 0.861381v 1.46954h 0.861381v -0.881726h 0.861381v 0.293909h 2.58414v -0.293909h 0.861381v 0.587817h 0.861381v -0.293909h 0.861381v 0.293909h 0.861381v -21.1614h 0.861381v 21.1614h 0.861381v -1.17563h 1.72276v 0.293909h 0.861381v -1.17563h
 0.861381v 2.64518h 0.861381v -2.05736h 0.861381v 1.76345h 1.72276v 0.881726h 0.861381v -2.93909h 1.72276v 0.293909h 0.861381v 1.46954h 0.861381v 1.17563h 0.861381v -1.17563h 0.861381v 0.587817h 0.861381v -0.881726h 0.861381v -0.293909h 0.861381v
 1.46954h 0.861381v -0.881726h 0.861381v -0.293909h 1.72276v -0.587817h 0.861381v 0.881726h 0.861381v 0.587817h 0.861381v -0.587817h 0.861381v -0.587817h 0.861381v -0.293909h 0.861381v 2.05736h 0.861381v -1.17563h 0.861381v 1.17563h 0.861381v
 0.293909h 0.861381v -0.881726h 1.72276v -1.17563h 0.861381v -0.587817h 0.861381v 1.76345h 0.861381v -0.293909h 0.861381v 1.17563h 0.861381v -3.233h 0.861381v 1.76345h 0.861381v -0.881726h 0.861381v 1.46954h 0.861381v -1.17563h 0.861381v -0.881726h
 0.861381v 0.881726h 0.861381v 2.35127h 0.861381v -1.46954h 0.861381v -1.17563h 0.861381v 1.17563h 0.861381v -0.587817h 0.861381v 0.293909h 0.861381v -0.587817h 0.861381v 0.293909h 0.861381v -0.293909h 0.861381v 1.17563h 0.861381v -0.293909h
 0.861381v -0.587817h 0.861381v 0.293909h 0.861381v -0.587817h 0.861381v -0.881726h 0.861381v 1.17563h 0.861381v -1.46954h 0.861381v 0.587817h 0.861381v 2.05736h 0.861381v 0.587817h 0.861381v -4.11472h 0.861381v 2.64518h 0.861381v -0.587817h
 0.861381v 1.76345h 0.861381v -0.881726h 0.861381v -0.881726h 0.861381v 0.587817h 0.861381v 0.881726h 0.861381v -0.587817h 0.861381v -1.17563h 0.861381v 0.587817h 0.861381v 1.46954h 0.861381v -2.35127h 0.861381v 2.35127h 0.861381v -2.35127h 0.861381v
 0.587817h 1.72276v 1.46954h 0.861381v -2.35127h 0.861381v 1.76345h 0.861381v 0.293909h 0.861381v -0.587817h 0.861381v -0.881726h 0.861381v 1.46954h 0.861381v -1.76345h 0.861381v -0.293909h 0.861381v 2.35127h 0.861381v 0.293909h 0.861381v -0.881726h
 0.861381v 0.881726h 0.861381v -1.76345h 0.861381v 1.17563h 0.861381v -0.293909h 0.861381v -0.587817h 0.861381v -0.587817h 0.861381v 0.293909h 0.861381v 0.881726h 1.72276v -0.293909h 0.861381v -0.587817h 0.861381v 2.05736h 0.861381v -1.76345h
 0.861381v 0.587817h 0.861381v 0.587817h 0.861381v -2.93909h 0.861381v 1.76345h 0.861381v 0.881726h 0.861381v -1.17563h 0.861381v -0.881726h 0.861381v 2.05736h 0.861381v -0.881726h 0.861381v 0.293909h 0.861381v 0.587817h 0.861381v -1.17563h 0.861381v
 -0.293909h 1.72276v 1.76345h 0.861381v -0.293909h 0.861381v -1.76345h 0.861381v -0.293909h 0.861381v 0.293909h 0.861381v 0.293909h 0.861381v 0.293909h 0.861381v -0.587817h 0.861381v 0.587817h 0.861381v 0.881726h 0.861381v -0.881726h 1.72276v
 -0.293909h 0.861381v -0.881726h 0.861381v 1.76345h 0.861381v -0.881726h 0.861381v -0.881726h 0.861381v 0.881726h 0.861381v -0.293909h 0.861381v -1.17563h 0.861381v 1.46954h 0.861381v -0.587817h 0.861381v -0.293909h 0.861381v 1.46954h 0.861381v
 -0.587817h 0.861381v -1.46954h 2.58414v -0.587817h 0.861381v 3.233h 0.861381v 0.881726h 0.861381v -0.587817h 0.861381v -1.76345h 0.861381v 2.05736h 0.861381v -0.881726h 0.861381v -2.35127h 0.861381v 1.17563h 1.72276v 1.76345h 0.861381v -1.46954h
 0.861381v 0.881726h 1.72276v 1.76345h 0.861381v -1.76345h 0.861381v -0.293909h 0.861381v -0.881726h 0.861381v 0.881726h 0.861381v 0.293909h 0.861381v 0.587817h 1.72276v -0.881726h 0.861381v -0.881726h 0.861381v 0.881726h 0.861381v 0.587817h
 0.861381v -1.76345h 0.861381v 0.881726h 0.861381v -2.35127h 0.861381v 2.35127h 0.861381v -0.293909h 0.861381v 0.293909h 0.861381v 0.881726h 0.861381v -1.46954h 0.861381v 0.293909h 0.861381v 0.293909h 1.72276v -0.587817h 0.861381v 0.881726h 0.861381v
 -1.17563h 0.861381v 2.05736h 0.861381v -1.76345h 0.861381v -0.881726h 0.861381v 0.293909h 0.861381v 2.64518h 0.861381v -1.46954h 0.861381v 0.881726h 0.861381v -1.17563h 0.861381v -0.587817h 0.861381v 2.05736h 0.861381v 0.587817h 0.861381v -2.05736h
 0.861381v 0.881726h 0.861381v -0.293909h 0.861381v -0.587817h 0.861381v -0.587817h 0.861381v 1.76345h 0.861381v -0.587817h 0.861381v -1.76345h 0.861381v 2.35127h 0.861381v -1.76345h 0.861381v 0.881726h 1.72276v -0.293909h 0.861381v -0.587817h
 0.861381v 0.293909h 0.861381v 0.587817h 0.861381v -0.587817h 0.861381v 2.05736h 0.861381v -1.17563h 0.861381v -15.5772h 0.861381v -34.9751h 0.861381v 8.22944h 0.861381v 39.9716h 0.861381v 0.881726h 0.861381v -1.46954h 0.861381v 0.881726h 0.861381v
 -1.46954h 0.861381v 1.46954h 0.861381v -1.76345h 0.861381v 1.46954h 0.861381v -0.587817h 0.861381v 0.293909h 0.861381v 1.76345h 0.861381v -1.76345h 0.861381v 0.293909h 1.72276v -0.881726h 0.861381v -0.293909h 1.72276v 0.881726h 0.861381v -1.17563h
 0.861381v 0.881726h 0.861381v 0.587817h 1.72276v -1.17563h 0.861381v 2.05736h 0.861381v -1.46954h 0.861381v -1.17563h 0.861381v 2.93909h 0.861381v -0.293909h 0.861381v -0.881726h 0.861381v -2.64518h 0.861381v 4.40863h 0.861381v -3.5269h 0.861381v
 2.05736h 0.861381v -1.76345h 0.861381v 1.46954h 0.861381v 0.293909h 0.861381v -2.35127h 0.861381v 0.587817h 0.861381v 1.76345h 0.861381v 0.293909h 0.861381v -0.881726h 0.861381v -0.881726h 0.861381v 0.293909h 0.861381v -2.05736h 0.861381v 4.11472h
 0.861381v -4.40863h 0.861381v 2.05736h 0.861381v 0.881726h 0.861381v 1.17563h 0.861381v -2.93909h 0.861381v 4.11472h 0.861381v -0.293909h 0.861381v -2.05736h 0.861381v 0.587817h 0.861381v 1.46954h 0.861381v -2.35127h 0.861381v -1.17563h 0.861381v
 2.35127h 0.861381v -0.293909h 0.861381v -0.293909h 0.861381v -1.46954h 0.861381v 0.293909h 0.861381v 2.05736h 0.861381v -0.881726h 0.861381v 1.46954h 0.861381v -1.46954h 1.72276v 0.881726h 0.861381v -0.587817h 0.861381v -0.587817h 0.861381v
 0.587817h 0.861381v 0.587817h 0.861381v -4.99645h 0.861381v -32.6239h 0.861381v -14.6954h 0.861381v 46.7315h 0.861381v 3.82081h 0.861381v -0.293909h 0.861381v 1.17563h 0.861381v -0.881726h 0.861381v 0.293909h 0.861381v 0.587817h 0.861381v -2.05736h
 0.861381v 0.587817h 0.861381v 0.587817h 0.861381v 1.17563h 0.861381v -1.46954h 0.861381v -1.76345h 0.861381v 1.17563h 0.861381v -0.881726h 0.861381v 1.76345h 1.72276v -1.76345h 1.72276v 0.587817h 0.861381v -1.17563h 0.861381v -0.587817h 0.861381v
 1.17563h 0.861381v 1.17563h 0.861381v -0.881726h 0.861381v -2.35127h 0.861381v 3.82081h 0.861381v -1.76345h 0.861381v -0.293909h 0.861381v 0.587817h 0.861381v 0.293909h 0.861381v 0.293909h 0.861381v -0.587817h 0.861381v -0.587817h 0.861381v
 -0.587817h 0.861381v 2.93909h 0.861381v -2.93909h 0.861381v -1.17563h 0.861381v 2.64518h 0.861381v 0.587817h 0.861381v 3.82081h 0.861381v -0.293909h 0.861381v -1.76345h 0.861381v 2.64518h 0.861381v 0.293909h 0.861381v -0.587817h 0.861381v -1.46954h
 0.861381v 3.233h 0.861381v -0.587817h 0.861381v -0.587817h 2.58414v 1.76345h 0.861381v -2.05736h 0.861381v 1.46954h 0.861381v 0.587817h 0.861381v -0.293909h 0.861381v 0.293909h 0.861381v -0.293909h 2.58414v 0.293909h 0.861381v -0.293909h 1.72276v
 0.293909h 6.89105v -0.587817h 0.861381v -49.6706h 0.861381v -83.1762h 0.861381v 99.0472h 0.861381v 34.3873h 55.9897" fill="none" stroke="#ffcc00" stroke-width="2"/>
<path d="M61.7283,343.698h 444.472" fill="none" stroke="black"/>
<text x="480.355" y="359.655" fill="black" font-size="8.53362" font-family="Helvetica">
E [keV]
</text>
<path d="M61.7283,339.495v 4.20319" fill="none" stroke="black"/>
<path d="M74.4276,341.597v 2.10159" fill="none" stroke="black"/>
<path d="M87.1268,341.597v 2.10159" fill="none" stroke="black"/>
<path d="M99.826,341.597v 2.10159" fill="none" stroke="black"/>
<path d="M112.525,341.597v 2.10159" fill="none" stroke="black"/>
<path d="M125.224,339.495v 4.20319" fill="none" stroke="black"/>
<path d="M137.924,341.597v 2.10159" fill="none" stroke="black"/>
<path d="M150.623,341.597v 2.10159" fill="none" stroke="black"/>
<path d="M163.322,341.597v 2.10159" fill="none" stroke="black"/>
<path d="M176.021,341.597v 2.10159" fill="none" stroke="black"/>
<path d="M188.72,339.495v 4.20319" fill="none" stroke="black"/>
<path d="M201.42,341.597v 2.10159" fill="none" stroke="black"/>
<path d="M214.119,341.597v 2.10159" fill="none" stroke="black"/>
<path d="M226.818,341.597v 2.10159" fill="none" stroke="black"/>
<path d="M239.517,341.597v 2.10159" fill="none" stroke="black"/>
<path d="M252.217,339.495v 4.20319" fill="none" stroke="black"/>
<path d="M264.916,341.597v 2.10159" fill="none" stroke="black"/>
<path d="M277.615,341.597v 2.10159" fill="none" stroke="black"/>
<path d="M290.314,341.597v 2.10159" fill="none" stroke="black"/>
<path d="M303.013,341.597v 2.10159" fill="none" stroke="black"/>
<path d="M315.713,339.495v 4.20319" fill="none" stroke="black"/>
<path d="M328.412,341.597v 2.10159" fill="none" stroke="black"/>
<path d="M341.111,341.597v 2.10159" fill="none" stroke="black"/>
<path d="M353.81,341.597v 2.10159" fill="none" stroke="black"/>
<path d="M366.509,341.597v 2.10159" fill="none" stroke="black"/>
<path d="M379.209,339.495v 4.20319" fill="none" stroke="black"/>
<path d="M391.908,341.597v 2.10159" fill="none" stroke="black"/>
<path d="M404.607,341.597v 2.10159" fill="none" stroke="black"/>
<path d="M417.306,341.597v 2.10159" fill="none" stroke="black"/>
<path d="M430.006,341.597v 2.10159" fill="none" stroke="black"/>
<path d="M442.705,339.495v 4.20319" fill="none" stroke="black"/>
<path d="M455.404,341.597v 2.10159" fill="none" stroke="black"/>
<path d="M468.103,341.597v 2.10159" fill="none" stroke="black"/>
<path d="M480.802,341.597v 2.10159" fill="none" stroke="black"/>
<path d="M493.502,341.597v 2.10159" fill="none" stroke="black"/>
<path d="M506.201,339.495v 4.20319" fill="none" stroke="black"/>
<text x="59.1805" y="352.083" fill="black" font-size="9.33698" font-family="Helvetica">
0
</text>
<text x="117.388" y="352.083" fill="black" font-size="9.33698" font-family="Helvetica">
500
</text>
<text x="178.434" y="352.083" fill="black" font-size="9.33698" font-family="Helvetica">
1000
</text>
<text x="241.847" y="352.083" fill="black" font-size="9.33698" font-family="Helvetica">
1500
</text>
<text x="305.733" y="352.083" fill="black" font-size="9.33698" font-family="Helvetica">
2000
</text>
<text x="369.146" y="352.083" fill="black" font-size="9.33698" font-family="Helvetica">
2500
</text>
<text x="432.559" y="352.083" fill="black" font-size="9.33698" font-family="Helvetica">
3000
</text>
<text x="495.971" y="352.083" fill="black" font-size="9.33698" font-family="Helvetica">
3500
</text>
<path d="M61.7283,343.698v -140.106" fill="none" stroke="black"/>
<path d="M75.0625,343.698h -13.3342" fill="none" stroke="black"/>
<path d="M68.3954,340.759h -6.66709" fill="none" stroke="black"/>
<path d="M68.3954,337.82h -6.66709" fill="none" stroke="black"/>
<path d="M68.3954,334.881h -6.66709" fill="none" stroke="black"/>
<path d="M68.3954,331.942h -6.66709" fill="none" stroke="black"/>
<path d="M75.0625,329.003h -13.3342" fill="none" stroke="black"/>
<path d="M68.3954,326.064h -6.66709" fill="none" stroke="black"/>
<path d="M68.3954,323.125h -6.66709" fill="none" stroke="black"/>
<path d="M68.3954,320.185h -6.66709" fill="none" stroke="black"/>
<path d="M68.3954,317.246h -6.66709" fill="none" stroke="black"/>
<path d="M75.0625,314.307h -13.3342" fill="none" stroke="black"/>
<path d="M68.3954,311.368h -6.66709" fill="none" stroke="black"/>
<path d="M68.3954,308.429h -6.66709" fill="none" stroke="black"/>
<path d="M68.3954,305.49h -6.66709" fill="none" stroke="black"/>
<path d="M68.3954,302.551h -6.66709" fill="none" stroke="black"/>
<path d="M75.0625,299.612h -13.3342" fill="none" stroke="black"/>
<path d="M68.3954,296.673h -6.66709" fill="none" stroke="black"/>
<path d="M68.3954,293.734h -6.66709" fill="none" stroke="black"/>
<path d="M68.3954,290.795h -6.66709" fill="none" stroke="black"/>
<path d="M68.3954,287.856h -6.66709" fill="none" stroke="black"/>
<path d="M75.0625,284.916h -13.3342" fill="none" stroke="black"/>
<path d="M68.3954,281.977h -6.66709" fill="none" stroke="black"/>
<path d="M68.3954,279.038h -6.66709" fill="none" stroke="black"/>
<path d="M68.3954,276.099h -6.66709" fill="none" stroke="black"/>
<path d="M68.3954,273.16h -6.66709" fill="none" stroke="black"/>
<path d="M75.0625,270.221h -13.3342" fill="none" stroke="black"/>
<path d="M68.3954,267.282h -6.66709" fill="none" stroke="black"/>
<path d="M68.3954,264.343h -6.66709" fill="none" stroke="black"/>
<path d="M68.3954,261.404h -6.66709" fill="none" stroke="black"/>
<path d="M68.3954,258.465h -6.66709" fill="none" stroke="black"/>
<path d="M75.0625,255.526h -13.3342" fill="none" stroke="black"/>
<path d="M68.3954,252.586h -6.66709" fill="none" stroke="black"/>
<path d="M68.3954,249.647h -6.66709" fill="none" stroke="black"/>
<path d="M68.3954,246.708h -6.66709" fill="none" stroke="black"/>
<path d="M68.3954,243.769h -6.66709" fill="none" stroke="black"/>
<path d="M75.0625,240.83h -13.3342" fill="none" stroke="black"/>
<path d="M68.3954,237.891h -6.66709" fill="none" stroke="black"/>
<path d="M68.3954,234.952h -6.66709" fill="none" stroke="black"/>
<path d="M68.3954,232.013h -6.66709" fill="none" stroke="black"/>
<path d="M68.3954,229.074h -6.66709" fill="none" stroke="black"/>
<path d="M75.0625,226.135h -13.3342" fill="none" stroke="black"/>
<path d="M68.3954,223.196h -6.66709" fill="none" stroke="black"/>
<path d="M68.3954,220.257h -6.66709" fill="none" stroke="black"/>
<path d="M68.3954,217.317h -6.66709" fill="none" stroke="black"/>
<path d="M68.3954,214.378h -6.66709" fill="none" stroke="black"/>
<path d="M75.0625,211.439h -13.3342" fill="none" stroke="black"/>
<path d="M75.0625,211.439h -13.3342" fill="none" stroke="black"/>
<path d="M68.3954,208.5h -6.66709" fill="none" stroke="black"/>
<path d="M68.3954,205.561h -6.66709" fill="none" stroke="black"/>
<text x="53.5017" y="347.351" fill="black" font-size="10.1403" font-family="Helvetica">
0
</text>
<text x="47.823" y="332.68" fill="black" font-size="10.1403" font-family="Helvetica">
50
</text>
<text x="42.6174" y="318.01" fill="black" font-size="10.1403" font-family="Helvetica">
100
</text>
<text x="42.6174" y="303.34" fill="black" font-size="10.1403" font-family="Helvetica">
150
</text>
<text x="42.6174" y="288.67" fill="black" font-size="10.1403" font-family="Helvetica">
200
</text>
<text x="42.6174" y="274" fill="black" font-size="10.1403" font-family="Helvetica">
250
</text>
<text x="42.6174" y="258.857" fill="black" font-size="10.1403" font-family="Helvetica">
300
</text>
<text x="42.6174" y="244.187" fill="black" font-size="10.1403" font-family="Helvetica">
350
</text>
<text x="42.6174" y="229.516" fill="black" font-size="10.1403" font-family="Helvetica">
400
</text>
<text x="42.6174" y="214.846" fill="black" font-size="10.1403" font-family="Helvetica">
450
</text>
<path d="M61.7283,340.759h 1.72276v -1.17563h 1.72276v -1.17563h 0.861381v -0.587817h 0.861381v 2.05736h 0.861381v 1.46954h 0.861381v -3.82081h 0.861381v 1.76345h 1.72276v 0.881726h 0.861381v 0.293909h 0.861381v 0.587817h 0.861381v 0.587817h
 0.861381v -2.05736h 0.861381v -1.17563h 0.861381v 1.46954h 0.861381v -1.17563h 0.861381v 2.64518h 0.861381v -4.99645h 0.861381v 0.881726h 0.861381v 3.5269h 0.861381v -1.46954h 0.861381v -0.587817h 0.861381v -0.293909h 0.861381v 0.881726h 0.861381v
 1.17563h 0.861381v 0.587817h 0.861381v -1.17563h 0.861381v -1.46954h 0.861381v 2.35127h 0.861381v -2.05736h 0.861381v 0.881726h 0.861381v 0.881726h 1.72276v -4.11472h 0.861381v 2.64518h 0.861381v -0.293909h 0.861381v 0.293909h 0.861381v -0.293909h
 0.861381v -0.881726h 0.861381v -0.587817h 0.861381v 2.93909h 1.72276v -0.881726h 0.861381v 1.17563h 0.861381v -1.17563h 1.72276v -0.293909h 0.861381v -2.64518h 0.861381v 3.82081h 0.861381v -1.17563h 0.861381v 1.17563h 0.861381v -0.293909h 0.861381v
 1.76345h 0.861381v -0.587817h 0.861381v 0.293909h 0.861381v 0.587817h 0.861381v -2.64518h 0.861381v 1.17563h 0.861381v -1.17563h 0.861381v 0.293909h 0.861381v -0.587817h 0.861381v 1.46954h 0.861381v -0.587817h 0.861381v 1.46954h 0.861381v 0.587817h
 1.72276v -2.35127h 0.861381v 1.46954h 1.72276v -0.881726h 0.861381v 0.587817h 1.72276v -18.5162h 0.861381v 17.9284h 0.861381v 0.881726h 1.72276v -0.587817h 0.861381v 1.46954h 0.861381v -2.05736h 0.861381v 1.46954h 0.861381v 0.587817h 0.861381v
 -0.293909h 0.861381v -0.881726h 0.861381v 0.881726h 0.861381v 0.293909h 0.861381v -1.17563h 0.861381v 0.881726h 0.861381v -0.587817h 0.861381v 0.881726h 1.72276v -0.881726h 0.861381v -1.17563h 0.861381v 0.293909h 0.861381v 0.293909h 0.861381v
 -2.35127h 0.861381v 3.233h 0.861381v -1.46954h 0.861381v 1.46954h 0.861381v -0.293909h 0.861381v 0.587817h 0.861381v -1.46954h 0.861381v 1.46954h 0.861381v -0.293909h 0.861381v -0.881726h 0.861381v 0.587817h 0.861381v 0.293909h 0.861381v 0.881726h
 0.861381v -1.46954h 0.861381v 0.587817h 1.72276v -0.587817h 0.861381v -0.587817h 0.861381v 2.05736h 0.861381v -1.17563h 1.72276v 0.881726h 0.861381v -0.587817h 0.861381v -0.587817h 0.861381v 0.587817h 0.861381v -0.293909h 0.861381v 0.293909h
 0.861381v 0.587817h 0.861381v -0.293909h 2.58414v -0.293909h 0.861381v -0.881726h 0.861381v 1.17563h 0.861381v 0.881726h 0.861381v -1.76345h 0.861381v 0.587817h 0.861381v 0.587817h 0.861381v -0.293909h 0.861381v -1.17563h 1.72276v 0.881726h
 0.861381v -0.293909h 1.72276v 1.46954h 0.861381v -0.293909h 0.861381v -0.293909h 0.861381v -0.293909h 0.861381v 0.881726h 0.861381v -1.76345h 0.861381v -1.76345h 0.861381v 1.46954h 0.861381v -1.17563h 0.861381v 1.76345h 0.861381v 0.587817h 0.861381v
 0.881726h 0.861381v -2.35127h 0.861381v 0.587817h 0.861381v 0.293909h 0.861381v -0.293909h 0.861381v 1.17563h 0.861381v -2.64518h 0.861381v 2.64518h 0.861381v -1.46954h 0.861381v 1.46954h 0.861381v -0.293909h 0.861381v 0.293909h 0.861381v -1.46954h
 0.861381v 0.293909h 0.861381v 1.17563h 1.72276v -1.17563h 0.861381v 0.293909h 0.861381v 1.17563h 0.861381v -1.46954h 0.861381v 1.17563h 0.861381v -1.17563h 0.861381v 1.76345h 0.861381v -2.64518h 0.861381v 0.587817h 0.861381v -0.293909h 0.861381v
 -0.587817h 0.861381v 0.587817h 0.861381v 1.46954h 0.861381v -1.17563h 0.861381v 0.881726h 0.861381v -1.17563h 0.861381v 0.293909h 1.72276v 0.293909h 0.861381v 0.881726h 0.861381v -0.293909h 2.58414v 0.293909h 0.861381v -0.293909h 0.861381v
 -0.587817h 0.861381v 1.17563h 0.861381v -1.46954h 0.861381v 1.46954h 0.861381v -1.76345h 0.861381v 0.293909h 0.861381v -1.17563h 0.861381v 1.46954h 0.861381v 2.05736h 0.861381v -2.93909h 0.861381v 1.76345h 0.861381v 0.293909h 1.72276v -1.46954h
 0.861381v -0.881726h 0.861381v 1.17563h 0.861381v -1.17563h 0.861381v 1.17563h 0.861381v 0.587817h 0.861381v -0.587817h 0.861381v -0.587817h 1.72276v -1.17563h 0.861381v 4.11472h 0.861381v -2.05736h 1.72276v 0.293909h 0.861381v 0.587817h 0.861381v
 -1.76345h 0.861381v 1.46954h 0.861381v -0.587817h 0.861381v -0.587817h 0.861381v -0.293909h 0.861381v 2.05736h 0.861381v -0.881726h 0.861381v -0.587817h 0.861381v 0.293909h 0.861381v 1.17563h 0.861381v -1.76345h 1.72276v -0.293909h 0.861381v
 1.17563h 1.72276v -0.587817h 2.58414v -0.587817h 0.861381v 0.881726h 0.861381v -0.881726h 0.861381v 1.17563h 0.861381v -0.587817h 1.72276v -0.293909h 0.861381v 0.293909h 0.861381v -1.46954h 0.861381v 1.17563h 0.861381v -0.293909h 0.861381v
 -0.587817h 0.861381v 0.293909h 0.861381v 0.587817h 0.861381v -1.76345h 0.861381v 0.587817h 0.861381v 0.293909h 0.861381v 0.587817h 0.861381v 0.881726h 0.861381v -0.293909h 0.861381v -0.293909h 0.861381v -1.46954h 0.861381v 2.05736h 0.861381v
 -2.05736h 0.861381v -0.293909h 0.861381v 0.293909h 0.861381v 2.35127h 0.861381v -1.76345h 0.861381v 0.293909h 0.861381v -0.881726h 0.861381v 2.05736h 0.861381v -1.17563h 0.861381v 0.293909h 0.861381v -0.587817h 0.861381v 1.17563h 0.861381v 0.293909h
 0.861381v -0.293909h 0.861381v -0.587817h 0.861381v -1.46954h 0.861381v 3.233h 0.861381v -3.5269h 0.861381v 1.76345h 0.861381v -0.587817h 0.861381v 1.17563h 0.861381v 1.76345h 0.861381v -1.46954h 0.861381v -0.881726h 0.861381v -0.587817h 0.861381v
 2.93909h 0.861381v -1.46954h 0.861381v -0.587817h 0.861381v -0.293909h 0.861381v 0.293909h 0.861381v -12.932h 0.861381v -17.9284h 0.861381v 6.7599h 0.861381v -1.76345h 0.861381v 20.5736h 0.861381v 3.5269h 0.861381v 0.881726h 0.861381v -1.76345h
 0.861381v -1.46954h 0.861381v 2.93909h 1.72276v -1.76345h 0.861381v -0.293909h 0.861381v -0.587817h 0.861381v -0.587817h 0.861381v 2.93909h 0.861381v -0.881726h 0.861381v 1.46954h 0.861381v -3.233h 0.861381v 3.233h 0.861381v 0.587817h 0.861381v
 -1.17563h 0.861381v -1.76345h 0.861381v 1.46954h 0.861381v -2.93909h 0.861381v 3.233h 0.861381v 0.587817h 0.861381v -2.05736h 0.861381v 2.35127h 0.861381v -1.76345h 0.861381v 2.05736h 0.861381v -0.293909h 0.861381v -2.35127h 0.861381v 2.05736h
 0.861381v -1.17563h 0.861381v -1.76345h 0.861381v 2.64518h 0.861381v -1.76345h 0.861381v 0.293909h 0.861381v 0.881726h 0.861381v 0.587817h 0.861381v -1.17563h 0.861381v 1.76345h 1.72276v -0.293909h 0.861381v -0.881726h 0.861381v -0.881726h 0.861381v
 0.587817h 0.861381v -1.17563h 0.861381v 0.587817h 0.861381v 1.46954h 0.861381v -0.587817h 0.861381v 1.17563h 0.861381v -0.293909h 0.861381v -1.76345h 0.861381v 1.46954h 0.861381v -1.17563h 0.861381v 1.17563h 0.861381v 0.293909h 1.72276v -1.46954h
 0.861381v 0.293909h 0.861381v -0.293909h 0.861381v 2.35127h 0.861381v -0.881726h 0.861381v 0.293909h 0.861381v -1.76345h 0.861381v 1.17563h 0.861381v 0.293909h 0.861381v -1.17563h 0.861381v 2.05736h 0.861381v -1.76345h 0.861381v -0.587817h 0.861381v
 -1.46954h 0.861381v 1.46954h 0.861381v -2.64518h 0.861381v -22.3371h 0.861381v -8.52335h 0.861381v 5.29036h 0.861381v 19.1041h 0.861381v 7.64163h 0.861381v -0.587817h 0.861381v 2.35127h 0.861381v -0.881726h 0.861381v -1.76345h 0.861381v 2.64518h
 0.861381v -1.46954h 0.861381v 1.46954h 0.861381v -2.05736h 2.58414v -0.881726h 0.861381v 2.93909h 0.861381v -1.46954h 0.861381v -1.17563h 0.861381v 2.93909h 0.861381v -0.881726h 0.861381v -1.46954h 0.861381v 0.881726h 0.861381v -1.46954h 0.861381v
 0.587817h 0.861381v -1.17563h 0.861381v 3.82081h 0.861381v -3.233h 0.861381v -1.46954h 0.861381v 0.587817h 0.861381v 0.293909h 0.861381v 1.76345h 0.861381v -0.881726h 1.72276v -2.93909h 0.861381v 4.70254h 0.861381v -0.293909h 0.861381v -2.64518h
 0.861381v 2.35127h 0.861381v 1.46954h 0.861381v -2.35127h 0.861381v 1.46954h 0.861381v 1.76345h 0.861381v 1.17563h 0.861381v 0.293909h 0.861381v -1.17563h 0.861381v 1.76345h 0.861381v -0.587817h 1.72276v 0.293909h 0.861381v 0.587817h 0.861381v
 -1.17563h 0.861381v 1.76345h 0.861381v -0.587817h 0.861381v 0.293909h 0.861381v -0.587817h 0.861381v 1.17563h 0.861381v 0.293909h 0.861381v 0.293909h 4.3069v 0.293909h 6.02966v -0.293909h 0.861381v 0.293909h 2.58414v -0.587817h 0.861381v -29.097h
 0.861381v -53.1975h 0.861381v -5.87817h 0.861381v 61.133h 0.861381v 27.6274h 59.4353" fill="none" stroke="#0000ff" stroke-width="2"/>
<rect x="89.5079" y="207.095" width="166.677" height="35.0266" fill="white"/>
<path d="M89.5079,242.121h 166.677" fill="none" stroke="black"/>
<path d="M256.185,242.121v -35.0266" fill="none" stroke="black"/>
<path d="M256.185,207.095h -166.677" fill="none" stroke="black"/>
<path d="M89.5079,207.095v 35.0266" fill="none" stroke="black"/>
<text x="232.856" y="219.579" fill="black" font-size="13.3538" font-family="Times">
&#0176;
</text>
<text x="203.516" y="219.579" fill="black" font-size="13.3538" font-family="Helvetica">
 = 36
</text>
<text x="196.89" y="219.579" fill="black" font-size="13.3538" font-family="Times">
&#0966;
</text>
<text x="131.111" y="219.579" fill="black" font-size="13.3538" font-family="Helvetica">
detektor 1, 
</text>
<path d="M95.7583,215.851h 29.1685" fill="none" stroke="#ffcc00" stroke-width="2"/>
<text x="232.856" y="237.088" fill="black" font-size="13.3538" font-family="Times">
&#0176;
</text>
<text x="203.516" y="237.088" fill="black" font-size="13.3538" font-family="Helvetica">
 = 62
</text>
<text x="196.89" y="237.088" fill="black" font-size="13.3538" font-family="Times">
&#0966;
</text>
<text x="131.111" y="237.088" fill="black" font-size="13.3538" font-family="Helvetica">
detektor 2, 
</text>
<path d="M95.7583,233.365h 29.1685" fill="none" stroke="#0000ff" stroke-width="2"/></svg>
